<svg width="160" height="160" viewBox="0 0 160 160" fill="none" xmlns="http://www.w3.org/2000/svg">
<g clip-path="url(#clip0_1_155)">
<path d="M122.691 79.2067C122.316 85.5223 118.081 91.6879 112.106 94.1098C103.725 97.5067 92.669 93.2286 87.5596 83.1317C86.7561 79.1304 85.4213 75.2544 83.5908 71.6067C81.2377 66.9223 77.6908 59.8692 71.844 56.3004H71.8408C70.5869 55.5268 69.2267 54.9404 67.8034 54.5598C63.1784 53.3317 60.194 54.9879 57.0752 52.2254C55.1658 50.5317 53.5283 47.4661 54.4534 45.3504C55.6565 42.6036 60.0752 43.966 61.8783 41.0254C63.8002 37.8973 60.169 34.1348 62.0877 31.6754C63.4221 29.9692 66.8877 29.5911 69.3252 30.7629C74.0002 33.0067 72.1784 39.6379 77.0534 46.3754C79.6627 49.9817 82.7815 51.5692 87.0002 53.8879C98.4065 60.1567 103.469 55.9286 111.722 61.1411C112.953 61.9192 123.316 68.6786 122.691 79.2067Z" fill="#FEE0FA"/>
<path d="M57.189 45.713C57.6234 44.9883 57.8239 44.1474 57.7633 43.3047C56.3484 43.66 55.0292 44.0315 54.4515 45.3504C54.1596 46.0885 54.1047 46.8992 54.2943 47.6699C55.4244 47.3334 56.4986 46.839 57.189 45.713ZM111.72 61.1411C103.467 55.9286 98.4047 60.1567 86.9984 53.8879C82.7797 51.5692 79.6609 49.9817 77.0515 46.3754C72.1765 39.638 73.9984 33.0067 69.3234 30.7629C66.8859 29.5911 63.4203 29.9692 62.0859 31.6754C61.3895 32.568 61.4253 33.6326 61.6602 34.7759C62.6887 34.7876 63.7029 35.0175 64.6359 35.4504C69.3109 37.6942 67.489 44.3254 72.364 51.0629C74.9734 54.6692 78.0922 56.2567 82.3109 58.5754C93.7172 64.8442 98.7797 60.616 107.033 65.8285C108.264 66.6067 118.627 73.3661 118.002 83.8942C117.785 87.0121 116.734 90.0144 114.959 92.5862C119.393 89.6088 122.377 84.4608 122.689 79.2067C123.314 68.6786 112.952 61.9192 111.72 61.1411Z" fill="#FEE0FA"/>
<path d="M76.2065 52.5911C75.2196 54.2903 73.6798 55.5996 71.844 56.3004H71.8409C70.5869 55.5267 69.2267 54.9404 67.8034 54.5598C63.1784 53.3317 60.194 54.9879 57.0752 52.2254C55.1658 50.5317 53.5283 47.4661 54.4534 45.3504C55.6565 42.6036 60.0752 43.966 61.8783 41.0254C63.8002 37.8973 60.169 34.1348 62.0877 31.6754C63.4221 29.9692 66.8877 29.5911 69.3252 30.7629C74.0002 33.0067 72.1784 39.6379 77.0534 46.3754C77.5635 48.4801 77.2611 50.6996 76.2065 52.5911Z" fill="#FEE0FA"/>
<path d="M76.2065 52.5911C75.9034 53.1207 75.5429 53.6153 75.1315 54.0661C74.2228 55.0546 73.0976 55.8193 71.844 56.3004H71.8408C70.5869 55.5267 69.2267 54.9404 67.8034 54.5598C63.1784 53.3317 60.194 54.9879 57.0752 52.2254C55.1658 50.5317 53.5283 47.4661 54.4534 45.3504C55.6565 42.6036 60.0752 43.966 61.8783 41.0254C63.1013 39.0326 62.0751 36.782 61.6636 34.7754H61.6627C61.6409 34.6629 61.619 34.5536 61.6002 34.4442C61.5971 34.441 61.5971 34.4379 61.5971 34.4317C61.5424 34.12 61.5131 33.8044 61.5096 33.4879C61.4878 32.8352 61.692 32.195 62.0877 31.6754C63.4221 29.9692 66.8877 29.5911 69.3252 30.7629C74.0002 33.0067 72.1784 39.6379 77.0534 46.3754C77.5635 48.4801 77.2611 50.6996 76.2065 52.5911Z" fill="#FEE0FA"/>
<path d="M76.2063 52.5911C75.9031 53.1207 75.5426 53.6153 75.1313 54.0661C74.0922 53.1796 73.1637 52.1713 72.3656 51.0629C67.4906 44.3254 69.3125 37.6942 64.6375 35.4504C63.7049 35.0172 62.6908 34.7871 61.6625 34.7754C61.6406 34.6629 61.6188 34.5536 61.6 34.4442C61.5969 34.441 61.5969 34.4379 61.5969 34.4317C61.5421 34.12 61.5129 33.8044 61.5094 33.4879C61.4876 32.8352 61.6918 32.195 62.0875 31.6754C63.4219 29.9692 66.8875 29.5911 69.325 30.7629C74 33.0067 72.1781 39.6379 77.0531 46.3754C77.5633 48.4801 77.2608 50.6996 76.2063 52.5911Z" fill="#FEE0FA"/>
<path d="M144.695 113.198C143.82 131.232 111.019 146.025 83.8036 145.54C63.4837 145.178 32.0746 136.089 28.923 116.368C26.3795 100.451 45.1905 85.3099 49.0814 82.1596C52.8105 79.1402 62.5905 71.4314 77.2952 69.8001C95.2742 67.8055 108.683 76.2199 116.753 81.2839C126.725 87.5418 145.371 99.2429 144.695 113.198Z" fill="#FEE0FA"/>
<path d="M116.753 81.2839C108.684 76.2199 95.2751 67.8055 77.2961 69.8001C76.739 69.8619 76.1914 69.9351 75.6484 70.0138C87.4794 71.7416 96.6046 77.4645 102.691 81.2839C112.663 87.5418 131.309 99.2429 130.633 113.198C129.847 129.414 103.249 143.006 78.108 145.231C80.0765 145.404 81.9855 145.508 83.8045 145.54C111.02 146.025 143.821 131.232 144.695 113.198C145.372 99.2429 126.726 87.5418 116.753 81.2839Z" fill="#FEE0FA"/>
<path d="M73.9374 95.438C73.7605 97.4215 72.9727 103.238 68.3173 107.428C62.3353 112.811 52.407 113.311 43.9811 108.222C41.8876 106.296 40.0305 104.127 38.4489 101.761C35.1653 96.8412 35.9257 95.2868 33.0093 90.1036C31.3701 87.1905 27.5813 81.1967 20.9499 78.063C19.6169 77.4292 18.199 76.9924 16.7405 76.7661C12.0124 76.038 9.22176 78.0036 5.82488 75.5849C3.74676 74.1068 1.79051 71.2317 2.48738 69.0286C3.39051 66.1724 7.92801 67.0537 9.40926 63.938C10.9874 60.6255 6.97488 57.2693 8.62488 54.6224C9.76863 52.7817 13.1749 52.038 15.7218 52.9442C20.6093 54.6786 19.503 61.463 25.0686 67.6442C28.0468 70.9536 31.3124 72.2005 35.7593 74.0598C44.228 77.6005 53.2561 75.088 61.5811 79.0348C67.8155 81.988 73.5968 88.2505 73.9374 95.438Z" fill="#FEE0FA"/>
<path d="M61.5797 79.0344C53.2547 75.0876 44.2266 77.6001 35.7578 74.0594C31.311 72.2001 28.0453 70.9532 25.0672 67.6438C19.5016 61.4626 20.6078 54.6782 15.7203 52.9438C13.203 52.0481 9.84982 52.7663 8.66797 54.5605C11.0553 57.3863 11.2462 62.7061 15.6922 67.6438C18.6703 70.9532 21.936 72.2001 26.3828 74.0594C34.8516 77.6001 43.8797 75.0876 52.2047 79.0344C58.4391 81.9876 64.2203 88.25 64.561 95.4375C64.3841 97.4211 63.5963 103.238 58.9409 107.427C56.8199 109.305 54.2591 110.617 51.4959 111.241C57.792 112.616 64.055 111.261 68.3159 107.427C72.9713 103.238 73.7591 97.4211 73.936 95.4375C73.5953 88.25 67.8141 81.9876 61.5797 79.0344Z" fill="#FEE0FA"/>
<path d="M24.8843 73.9161C24.088 75.7093 22.6987 77.1736 20.9499 78.063C19.6169 77.4292 18.199 76.9923 16.7405 76.7661C12.0124 76.038 9.22176 78.0036 5.82488 75.5849C3.74676 74.1068 1.79051 71.2317 2.48738 69.0286C3.39051 66.1724 7.92801 67.0537 9.40926 63.938C10.9874 60.6255 6.97488 57.2693 8.62488 54.6224C9.76863 52.7817 13.1749 52.038 15.7218 52.9442C20.6093 54.6786 19.503 61.463 25.0686 67.6442C25.7967 69.6839 25.7309 71.9228 24.8843 73.9161Z" fill="#FEE0FA"/>
<path d="M25.0499 73.5051C24.9999 73.6426 24.9436 73.7801 24.8843 73.9176C24.088 75.7108 22.6987 77.1751 20.9499 78.0645C19.6169 77.4307 18.199 76.9938 16.7405 76.7675C12.0124 76.0395 9.22176 78.0051 5.82488 75.5863C3.74676 74.1082 1.79051 71.2332 2.48738 69.0301C3.39051 66.1738 7.92801 67.0551 9.40926 63.9394C10.9874 60.6269 6.97488 57.2707 8.62488 54.6238C8.66259 54.5608 8.70435 54.5002 8.74988 54.4426C8.77801 54.4051 8.80926 54.3676 8.83738 54.3301C8.86551 54.2926 8.89676 54.2551 8.93113 54.2176C8.99676 54.1457 9.06551 54.0738 9.13738 54.0051C9.17071 53.9685 9.20732 53.935 9.24676 53.9051C9.32176 53.8394 9.40301 53.7738 9.48426 53.7113C9.52488 53.6801 9.56549 53.6519 9.60926 53.6207C9.65301 53.5926 9.69676 53.5613 9.74051 53.5332C9.78758 53.5001 9.83663 53.4698 9.88738 53.4426C9.92801 53.4176 9.97176 53.3926 10.0124 53.3707C10.2097 53.2591 10.4143 53.1609 10.6249 53.0769C10.7249 53.0363 10.8218 52.9988 10.9249 52.9644C11.0874 52.9051 11.253 52.8551 11.4218 52.8113C11.5249 52.7832 11.6311 52.7582 11.7374 52.7363C11.7511 52.7299 11.766 52.7267 11.7811 52.7269C11.8311 52.7144 11.8843 52.705 11.9374 52.6957C12.0593 52.6707 12.1843 52.6519 12.3061 52.6363C12.3593 52.6269 12.4155 52.6207 12.4718 52.6144C13.5662 52.4784 14.6773 52.5916 15.7218 52.9457C20.6093 54.68 19.503 61.4644 25.0686 67.6457C25.7448 69.5414 25.7382 71.6137 25.0499 73.5051Z" fill="#FEE0FA"/>
<path d="M25.0492 73.5012C21.268 71.9199 18.3648 70.6105 15.693 67.6418C11.2461 62.7043 11.0555 57.3855 8.66797 54.5574C8.69297 54.5168 8.72109 54.4793 8.74922 54.4387C8.77734 54.4012 8.80859 54.3637 8.83672 54.3262C8.86484 54.2887 8.89609 54.2512 8.93047 54.2137C8.99609 54.1418 9.06484 54.0699 9.13672 54.0012C9.17005 53.9646 9.20666 53.9311 9.24609 53.9012C9.32109 53.8355 9.40234 53.7699 9.48359 53.7074C9.52422 53.6762 9.56483 53.648 9.60859 53.6168C9.65234 53.5887 9.69609 53.5574 9.73984 53.5293C9.78692 53.4962 9.83597 53.4659 9.88672 53.4387C9.92734 53.4137 9.97109 53.3887 10.0117 53.3668C10.209 53.2552 10.4137 53.157 10.6242 53.073C10.7242 53.0324 10.8211 52.9949 10.9242 52.9605C11.0867 52.9012 11.2523 52.8512 11.4211 52.8074C11.5242 52.7793 11.6305 52.7543 11.7367 52.7324C11.7504 52.726 11.7654 52.7228 11.7805 52.723C11.8305 52.7105 11.8836 52.7011 11.9367 52.6918C12.0586 52.6668 12.1836 52.648 12.3055 52.6324C12.3586 52.623 12.4148 52.6168 12.4711 52.6105C13.5655 52.4745 14.6766 52.5877 15.7211 52.9418C20.6086 54.6761 19.5023 61.4605 25.068 67.6418C25.7441 69.5375 25.7375 71.6098 25.0492 73.5012Z" fill="#FEE0FA"/>
<path d="M142.322 148.41H17.6781C15.8967 148.41 14.1522 147.903 12.6488 146.947C11.1455 145.991 9.94548 144.627 9.18941 143.014L2.34375 128.41H157.656L150.811 143.014C150.055 144.627 148.855 145.991 147.351 146.947C145.848 147.903 144.103 148.41 142.322 148.41Z" fill="#FEE0FA"/>
<path d="M143.592 128.41L136.746 143.014C135.99 144.627 134.79 145.991 133.287 146.947C131.784 147.903 130.039 148.41 128.258 148.41H142.32C144.102 148.41 145.846 147.903 147.35 146.947C148.853 145.991 150.053 144.627 150.809 143.014L157.655 128.41H143.592Z" fill="#FEE0FA"/>
<path d="M117.438 103.884C120.866 104.538 125.049 105.384 127.71 107.825C133.776 113.39 125.037 116.432 120.384 117.597C112.53 119.561 96.6705 118.875 91.4458 107.227C86.994 97.3025 93.6542 86.9498 94.2443 86.0625C94.3189 88.5294 94.899 90.9547 95.9489 93.1883C96.4605 94.2741 97.4742 96.6225 99.7914 98.5157C103.276 101.362 107.973 102.369 112.309 103.054C113.538 103.248 115.392 103.494 117.438 103.884Z" fill="#FEE0FA"/>
<path d="M127.707 107.825C125.046 105.384 120.863 104.538 117.435 103.884C115.389 103.494 113.535 103.248 112.306 103.054C107.97 102.369 103.273 101.362 99.7886 98.5157C97.4714 96.6225 96.4577 94.274 95.9461 93.1883C94.8962 90.9547 94.3161 88.5294 94.2416 86.0625C92.3884 88.9772 91.0759 92.2021 90.3672 95.5825C90.6111 96.3665 90.909 97.1328 91.2586 97.8758C91.7702 98.9615 92.7839 101.31 95.1011 103.203C98.5854 106.05 103.283 107.056 107.619 107.741C108.848 107.936 110.702 108.181 112.748 108.572C116.176 109.225 120.358 110.072 123.019 112.513C124.459 113.833 125.063 115.011 125.088 116.056C128.906 114.414 131.981 111.746 127.707 107.825Z" fill="#FEE0FA"/>
<path d="M127.89 60.5479C128.304 60.5474 128.71 60.4372 129.068 60.2286C129.425 60.02 129.721 59.7204 129.926 59.3603C130.13 59.0002 130.235 58.5925 130.231 58.1785C130.226 57.7645 130.112 57.3591 129.9 57.0034C128.756 55.0843 128.269 53.2434 128.453 51.5312C128.583 50.3192 128.997 49.5331 129.569 48.4449C130.283 47.1925 130.818 45.846 131.158 44.4448C131.863 41.3482 131.426 37.9679 129.861 34.3979C129.737 34.116 129.559 33.8612 129.337 33.6481C129.115 33.435 128.853 33.2677 128.566 33.1558C128.28 33.0439 127.974 32.9895 127.666 32.9959C127.358 33.0022 127.055 33.0691 126.773 33.1927C126.491 33.3163 126.236 33.4942 126.023 33.7163C125.81 33.9384 125.643 34.2003 125.531 34.487C125.419 34.7737 125.365 35.0797 125.371 35.3874C125.377 35.6951 125.444 35.9986 125.568 36.2805C126.722 38.9112 127.065 41.3081 126.588 43.4048C126.334 44.4077 125.941 45.3701 125.42 46.2636C124.763 47.5129 124.018 48.9291 123.792 51.0304C123.497 53.7755 124.198 56.5928 125.874 59.4043C126.082 59.7533 126.377 60.0423 126.731 60.2428C127.084 60.4433 127.483 60.5484 127.89 60.5479ZM104.366 119.796C107.144 120.465 109.992 120.798 112.849 120.788C115.577 120.805 118.296 120.498 120.951 119.873C127.465 118.244 131.17 115.832 131.964 112.704C132.354 111.168 132.207 108.776 129.292 106.102C126.073 103.148 121.335 102.245 117.875 101.585C116.326 101.29 114.901 101.077 113.756 100.906C113.357 100.847 112.994 100.793 112.673 100.742C108.515 100.085 104.255 99.1412 101.273 96.7038C99.4964 95.2526 98.6594 93.46 98.1594 92.3889L98.0674 92.1923C97.1513 90.2506 96.6468 88.1403 96.5854 85.9942C96.5703 85.4973 96.3975 85.0181 96.092 84.6259C95.7866 84.2337 95.3644 83.9487 94.8864 83.8122C94.4084 83.6757 93.8993 83.6947 93.4328 83.8666C92.9663 84.0384 92.5666 84.3541 92.2913 84.768C91.4666 86.0079 84.376 97.1997 89.3056 108.19C91.9089 113.993 97.1166 118.006 104.366 119.796ZM93.1975 93.9328C93.2671 93.7014 93.3389 93.4743 93.4128 93.2513C93.5427 93.5669 93.6808 93.88 93.8271 94.1906L93.912 94.3716C94.4929 95.6161 95.7017 98.2055 98.3068 100.334C102.152 103.476 107.133 104.612 111.941 105.372C112.274 105.425 112.651 105.481 113.064 105.543C114.168 105.707 115.541 105.912 116.997 106.19H116.998C119.905 106.744 123.886 107.503 126.124 109.556C127.204 110.546 127.497 111.249 127.421 111.55C127.245 112.242 125.429 113.921 119.813 115.326C116.454 116.166 110.927 116.586 105.489 115.244C101.446 114.246 96.0985 111.88 93.5827 106.271C91.9575 102.648 91.8279 98.497 93.1975 93.9328ZM40.7668 46.1766C41.1808 46.1761 41.5874 46.0659 41.945 45.8573C42.3026 45.6487 42.5987 45.3491 42.8029 44.989C43.0072 44.6288 43.1125 44.221 43.108 43.807C43.1035 43.393 42.9895 42.9876 42.7775 42.632C41.633 40.7133 41.146 38.8722 41.33 37.1599C41.4603 35.9477 41.8737 35.1616 42.4457 34.0735C43.1602 32.821 43.6952 31.4745 44.0352 30.0734C44.7399 26.9767 44.3035 23.5965 42.7378 20.0264C42.6144 19.7442 42.4366 19.489 42.2145 19.2756C41.9925 19.0621 41.7305 18.8945 41.4437 18.7824C41.1568 18.6703 40.8506 18.6158 40.5427 18.622C40.2347 18.6283 39.9311 18.6952 39.649 18.8189C39.3669 18.9426 39.112 19.1207 38.8988 19.3429C38.6856 19.5652 38.5183 19.8274 38.4064 20.1144C38.2946 20.4013 38.2404 20.7076 38.247 21.0155C38.2536 21.3234 38.3209 21.6271 38.4449 21.909C39.5986 24.5398 39.9417 26.9366 39.4646 29.0333C39.2113 30.0362 38.8181 30.9985 38.2967 31.8919C37.6398 33.1414 36.8952 34.5576 36.6694 36.6591C36.3744 39.4046 37.0749 42.222 38.7516 45.0331C38.9595 45.382 39.2546 45.6709 39.6079 45.8714C39.9612 46.0719 40.3606 46.177 40.7668 46.1766ZM143.461 86.6348C143.875 86.6343 144.282 86.5241 144.639 86.3155C144.997 86.1069 145.293 85.8074 145.497 85.4473C145.701 85.0872 145.807 84.6795 145.802 84.2655C145.798 83.8515 145.684 83.4461 145.472 83.0905C144.328 81.1712 143.841 79.3301 144.025 77.6181C144.155 76.4058 144.568 75.6196 145.14 74.5314C145.855 73.279 146.39 71.9326 146.73 70.5314C147.434 67.4345 146.998 64.0542 145.432 60.4846C145.182 59.9158 144.716 59.4695 144.138 59.2439C143.559 59.0183 142.914 59.0317 142.345 59.2813C141.776 59.5308 141.329 59.9961 141.103 60.5749C140.877 61.1536 140.89 61.7984 141.139 62.3675C142.293 64.9978 142.636 67.3947 142.159 69.4915C141.906 70.4944 141.513 71.4566 140.991 72.35C140.334 73.5995 139.59 75.0158 139.364 77.1173C139.069 79.8622 139.769 82.6794 141.446 85.491C141.654 85.8401 141.949 86.1291 142.302 86.3296C142.656 86.5301 143.055 86.6353 143.461 86.6348ZM22.0168 27.5549C22.4308 27.5544 22.8373 27.4442 23.195 27.2356C23.5526 27.027 23.8486 26.7274 24.0529 26.3673C24.2572 26.0072 24.3625 25.5994 24.358 25.1854C24.3535 24.7713 24.2395 24.3659 24.0275 24.0103C22.883 22.0916 22.3961 20.2505 22.58 18.5382C22.7103 17.3262 23.1237 16.5401 23.6957 15.4519C24.4101 14.1995 24.9452 12.8529 25.2852 11.4517C25.9899 8.35506 25.5533 4.97494 23.9878 1.40484C23.8644 1.12263 23.6866 0.867503 23.4645 0.654055C23.2425 0.440607 22.9805 0.273019 22.6937 0.160875C22.4068 0.0487301 22.1006 -0.00577229 21.7927 0.00048351C21.4847 0.00673931 21.1811 0.0736307 20.899 0.197333C20.6169 0.321036 20.362 0.499123 20.1488 0.721413C19.9356 0.943704 19.7683 1.20584 19.6564 1.49283C19.5446 1.77982 19.4904 2.08603 19.497 2.39397C19.5036 2.70191 19.5709 3.00553 19.6949 3.28747C20.8486 5.91823 21.1917 8.31509 20.7146 10.4118C20.4612 11.4147 20.0681 12.3771 19.5467 13.2705C18.8898 14.5199 18.1452 15.9361 17.9194 18.0374C17.6244 20.7829 18.3249 23.6004 20.0016 26.4114C20.2095 26.7604 20.5046 27.0493 20.8579 27.2497C21.2112 27.4502 21.6106 27.5554 22.0168 27.5549ZM159.634 127.155C159.423 126.822 159.13 126.548 158.785 126.358C158.439 126.168 158.051 126.068 157.656 126.068H141.619C144.972 121.985 146.828 117.647 147.038 113.313C147.645 100.772 134.806 90.3643 124.335 83.3701C124.713 82.0587 124.946 80.7098 125.03 79.3475C125.715 67.8193 115.107 60.5099 112.973 59.1613C108.54 56.3617 104.815 55.9868 101.211 55.6244C97.4868 55.2496 93.6353 54.8622 88.1289 51.8359L87.4659 51.4721C83.6408 49.376 81.1138 47.9911 78.9519 45.0035L78.9446 44.993C78.9389 44.9851 78.9338 44.9767 78.9279 44.9689C76.933 42.1967 76.1892 39.3672 75.5335 36.8695C74.6882 33.6494 73.8141 30.3198 70.3406 28.6526C66.4873 26.7999 62.0081 27.9745 60.2398 30.2357C58.5839 32.3581 59.226 34.8164 59.6949 36.6115C60.0931 38.1363 60.3043 39.1118 59.8801 39.8024C59.4947 40.431 58.6684 40.6646 57.3524 40.9938C55.6705 41.4145 53.3669 41.9906 52.3057 44.4136C50.9167 47.5905 52.8712 51.6313 55.5211 53.9819C58.0587 56.2297 60.6618 56.2938 62.9586 56.3504C64.3882 56.334 65.8145 56.4944 67.2048 56.8278C68.4082 57.1513 69.5582 57.648 70.6187 58.3023C70.6417 58.3165 70.6652 58.3302 70.6887 58.3435C74.0397 60.4128 76.6271 63.901 78.6446 67.3189C78.1066 67.3617 77.5704 67.4103 77.0386 67.4699C69.4293 68.3368 62.0942 70.8245 55.5275 74.7655C53.1845 74.4019 50.8248 74.1559 48.4572 74.0283C44.3154 73.7373 40.4033 73.4625 36.664 71.8995L35.9757 71.6125C31.9436 69.9327 29.2798 68.8231 26.8096 66.0789C24.5107 63.5254 23.4664 60.778 22.5451 58.3541C21.3624 55.2426 20.1392 52.025 16.5064 50.7359C12.4772 49.3061 8.14794 50.9515 6.63351 53.3859C5.21093 55.6726 6.11135 58.0493 6.76885 59.7848C7.32686 61.2578 7.64058 62.2047 7.29391 62.9338C6.97652 63.6012 6.17925 63.9219 4.90468 64.3898C3.27779 64.987 1.04955 65.805 0.252902 68.3239C-0.793698 71.6327 1.58057 75.4434 4.46646 77.4975C7.22968 79.4647 9.8255 79.2511 12.1155 79.0628C13.5338 78.8944 14.9675 78.9017 16.384 79.0847C17.5646 79.2693 18.7142 79.6156 19.8003 80.1138C19.8883 80.1629 19.9793 80.2063 20.0728 80.2437C24.6535 82.4433 28.1145 87.0741 31.0697 91.4221C31.855 92.6033 32.5621 93.8347 33.1862 95.1085C27.7418 102.693 25.5283 109.964 26.6108 116.739C27.1612 120.08 28.4292 123.263 30.3274 126.068H2.3438C1.9493 126.068 1.56119 126.168 1.21542 126.358C0.869647 126.548 0.577408 126.822 0.365782 127.155C0.154156 127.488 0.0299894 127.869 0.00478786 128.262C-0.0204137 128.656 0.0541653 129.05 0.221614 129.407L7.06732 144.011C8.01673 146.024 9.5177 147.726 11.3959 148.92C13.2741 150.114 15.4525 150.75 17.6781 150.756H142.322C144.548 150.75 146.726 150.114 148.604 148.92C150.482 147.726 151.983 146.024 152.933 144.011L159.778 129.407C159.946 129.05 160.021 128.656 159.995 128.262C159.97 127.869 159.846 127.488 159.634 127.155ZM74.1698 51.4314C73.6337 52.3602 72.8618 53.131 71.9322 53.6659C70.8102 53.0814 69.6273 52.6221 68.4047 52.2964C66.6607 51.8667 64.8701 51.6544 63.0739 51.6642C60.8629 51.6098 59.8346 51.5408 58.6304 50.474C57.1331 49.1459 56.2629 47.064 56.6001 46.2928C56.7373 45.9796 57.6282 45.7566 58.4897 45.5412C60.1696 45.1211 62.4701 44.5456 63.875 42.2544C65.3756 39.8123 64.7136 37.2776 64.2302 35.4269C63.996 34.5304 63.7047 33.4149 63.9338 33.1211C64.4486 32.4629 66.66 32.0845 68.3109 32.8779C69.7663 33.5763 70.2103 35.0527 70.9996 38.0596C71.695 40.7084 72.5576 43.9787 74.8569 47.3238C75.1042 48.7313 74.8617 50.181 74.1698 51.4314ZM76.0073 56.4877C77.4376 55.2378 78.5055 53.6264 79.0992 51.8221C80.918 53.2289 82.9309 54.3323 85.2131 55.5829L85.8712 55.9439C92.2152 59.4305 96.7454 59.8863 100.742 60.2884C104.223 60.6384 106.972 60.9151 110.47 63.1242C111.538 63.7994 120.891 69.9821 120.351 79.0704C120.319 79.604 120.255 80.1353 120.16 80.6614C119.519 80.2549 118.898 79.8635 118.315 79.4971L117.983 79.2882C110.931 74.8649 99.2712 67.5544 83.94 67.1737C81.9961 63.5656 79.4567 59.5297 76.0073 56.4877ZM22.7378 72.9797C22.3049 73.957 21.6224 74.8032 20.7589 75.4332C19.5777 74.9743 18.35 74.6453 17.0975 74.4519C15.3181 74.2104 13.5157 74.1899 11.7313 74.391C9.52703 74.5724 8.49736 74.613 7.18481 73.6787C5.55425 72.5181 4.46782 70.5417 4.72219 69.7375C4.82503 69.4124 5.6867 69.096 6.52013 68.7901C8.14565 68.1935 10.3721 67.3761 11.5273 64.9467C12.7572 62.3602 11.8296 59.9118 11.1522 58.1241C10.8242 57.258 10.4159 56.1801 10.6136 55.8621C11.0546 55.153 13.212 54.5407 14.939 55.1536C16.4606 55.6935 17.0591 57.1141 18.1634 60.0196C19.1364 62.5793 20.3417 65.7391 22.9837 68.8209C23.3798 70.1945 23.293 71.6624 22.7378 72.9797ZM35.5215 100.017C37.2496 103.638 39.2035 107.233 42.4624 110.008C42.6967 110.208 42.968 110.359 43.2609 110.454C43.5537 110.549 43.8624 110.585 44.1691 110.56C44.4759 110.535 44.7749 110.451 45.0489 110.311C45.3229 110.17 45.5667 109.978 45.7662 109.743C45.9657 109.509 46.1172 109.238 46.2118 108.945C46.3065 108.652 46.3426 108.343 46.318 108.037C46.2934 107.73 46.2086 107.431 46.0685 107.157C45.9284 106.883 45.7356 106.639 45.5013 106.439C42.4831 103.869 40.7564 100.167 38.9284 96.2478C38.6469 95.6442 38.3627 95.0355 38.0717 94.4265C38.0476 94.3702 38.0206 94.3152 37.992 94.2607C37.1145 92.363 36.0966 90.5334 34.9466 88.7872C32.1089 84.6121 28.979 80.5664 25.1081 77.8058C26.3944 76.4119 27.2828 74.6982 27.6807 72.8437C29.6425 74.0519 31.7657 74.9366 34.173 75.9394L34.8563 76.2245C39.3064 78.0845 43.7914 78.3995 48.1287 78.7042C52.5245 79.013 56.6762 79.3046 60.5774 81.1535C67.8814 84.6151 71.3741 90.8795 71.5952 95.552C71.6246 96.1729 71.8994 96.7568 72.3592 97.175C72.8191 97.5933 73.4262 97.8118 74.0471 97.7824C74.6681 97.753 75.2519 97.4782 75.6701 97.0184C76.0884 96.5585 76.3069 95.9514 76.2775 95.3305C76.0949 91.4743 74.5464 87.6208 71.7992 84.187C69.3066 81.1087 66.1588 78.6253 62.5849 76.9177C62.3746 76.818 62.164 76.7265 61.9534 76.6342C66.8628 74.2609 72.1391 72.7373 77.558 72.1284C79.2082 71.9443 80.867 71.849 82.5274 71.8431C82.5847 71.8429 82.6407 71.8427 82.698 71.8427C97.2908 71.8427 108.239 78.7095 115.505 83.2675L115.819 83.4649C117.157 84.3064 118.674 85.2603 120.254 86.2923L120.27 86.3028C130.003 92.6564 142.876 102.343 142.356 113.086C142.146 117.412 139.668 121.886 135.184 126.068H36.2311C33.4927 122.972 31.8132 119.583 31.2395 115.998C30.4573 111.104 31.8971 105.741 35.5215 100.017ZM148.688 142.021C148.119 143.229 147.218 144.251 146.091 144.967C144.964 145.683 143.657 146.065 142.322 146.068H17.6781C16.3428 146.065 15.0357 145.683 13.9088 144.967C12.7818 144.25 11.8813 143.229 11.3117 142.021L6.03094 130.756H136.082C136.086 130.756 136.09 130.757 136.095 130.757C136.099 130.757 136.104 130.756 136.108 130.756H153.969L148.688 142.021Z" fill="black"/>
</g>
<defs>
<clipPath id="clip0_1_155">
<rect width="160" height="160" fill="white"/>
</clipPath>
</defs>
</svg>
