<svg width="176" height="151" viewBox="0 0 176 151" fill="none" xmlns="http://www.w3.org/2000/svg">
<path d="M19.1 115.913V114.413L17.6 114.413L8.8 114.413C6.82548 114.413 4.95438 113.691 3.59311 112.438C2.23603 111.189 1.5 109.524 1.5 107.817V72.7299C1.5 71.0225 2.23603 69.357 3.59311 68.1083L2.57746 67.0045L3.59311 68.1083C4.95438 66.8558 6.82548 66.133 8.8 66.133H67.7871C68.4171 66.1329 69.0369 66.2549 69.6053 66.4878C70.1735 66.7206 70.673 67.057 71.0756 67.4686C71.0756 67.4686 71.0757 67.4686 71.0757 67.4686L92.6008 89.4746C92.602 89.4758 92.6032 89.4771 92.6044 89.4783C94.3408 91.2836 95.2663 93.5937 95.2382 95.9563C95.2102 98.3208 94.2285 100.615 92.4457 102.387C90.6595 104.162 88.1974 105.283 85.5292 105.5C82.8626 105.716 80.2166 105.011 78.1066 103.544C78.105 103.543 78.1035 103.542 78.102 103.541L59.5332 90.3982L57.1667 88.7232V91.6226V142.903C57.1667 144.61 56.4306 146.276 55.0736 147.525C53.7123 148.777 51.8412 149.5 49.8667 149.5H26.4C24.4255 149.5 22.5544 148.777 21.1931 147.525C19.836 146.276 19.1 144.61 19.1 142.903V115.913ZM167.2 66.1328H167.202C168.177 66.1316 169.141 66.3076 170.036 66.6483C170.931 66.9889 171.737 67.4858 172.41 68.105C173.083 68.724 173.609 69.4522 173.965 70.2443C174.321 71.0359 174.501 71.8794 174.5 72.7275V72.7297V107.816V107.819C174.501 108.667 174.321 109.51 173.965 110.302C173.609 111.094 173.083 111.822 172.41 112.441C171.737 113.06 170.931 113.557 170.036 113.898C169.141 114.239 168.177 114.415 167.202 114.413H167.2H158.4H156.9V115.913V142.903V142.905C156.901 143.753 156.721 144.597 156.365 145.389C156.009 146.181 155.483 146.909 154.81 147.528C154.137 148.147 153.331 148.644 152.436 148.985C151.541 149.325 150.577 149.501 149.602 149.5H149.6H126.133H126.131C125.156 149.501 124.193 149.325 123.297 148.985C122.402 148.644 121.596 148.147 120.923 147.528C120.25 146.909 119.724 146.181 119.368 145.389C119.013 144.597 118.832 143.753 118.833 142.905V142.903V91.6226V88.7247L116.467 90.3978L103.788 99.3637C104.19 97.4415 104.256 95.4592 103.97 93.4936C103.441 89.8609 101.739 86.4762 99.1063 83.7744L99.104 83.772L94.0293 78.5864L104.909 67.4662C104.91 67.4655 104.91 67.4649 104.911 67.4643C105.316 67.0535 105.817 66.718 106.386 66.486C106.956 66.2536 107.578 66.1322 108.209 66.1328H108.211H167.2ZM126.133 151H149.6C150.756 151.001 151.901 150.793 152.969 150.387C154.038 149.98 155.009 149.384 155.826 148.632C156.643 147.879 157.292 146.986 157.733 146.003C158.175 145.02 158.402 143.967 158.4 142.903V117.413V115.913H159.9H167.2C168.356 115.915 169.501 115.706 170.569 115.3C171.638 114.893 172.609 114.297 173.426 113.545C174.243 112.793 174.892 111.9 175.333 110.917C175.775 109.934 176.002 108.88 176 107.816V72.7297C176.002 71.666 175.775 70.6125 175.333 69.6295C174.892 68.6465 174.243 67.7533 173.426 67.0012C172.609 66.249 171.638 65.6527 170.569 65.2463C169.501 64.8399 168.356 64.6314 167.2 64.6328L126.133 151ZM105.82 65.0969C105.067 65.4037 104.393 65.8525 103.84 66.4141L108.211 64.6328C107.387 64.632 106.573 64.7901 105.82 65.0969ZM57.8595 44.828C52.6475 49.6236 45.5536 52.3369 38.1333 52.3369C30.7131 52.3369 23.6193 49.6236 18.4073 44.828C13.2077 40.044 10.3093 33.5861 10.3 26.8795C10.6742 18.3711 14.2375 12.0695 19.3504 7.87273C24.4983 3.64713 31.2892 1.50062 38.1313 1.5C44.9733 1.49938 51.7645 3.64464 56.9131 7.86987C62.0265 12.0663 65.591 18.3684 65.9666 26.8794C65.9574 33.5859 63.059 40.0439 57.8595 44.828ZM157.593 44.828C152.381 49.6236 145.287 52.3369 137.867 52.3369C130.446 52.3369 123.353 49.6236 118.141 44.828C112.941 40.044 110.043 33.586 110.033 26.8794C110.408 18.371 113.971 12.0695 119.084 7.87273C124.232 3.64713 131.023 1.50062 137.865 1.5C144.707 1.49938 151.498 3.64464 156.646 7.86987C161.76 12.0663 165.324 18.3685 165.7 26.8796C165.691 33.5861 162.792 40.0439 157.593 44.828Z" fill="#D5F5DE" stroke="black" stroke-width="3"/>
</svg>
