<svg width="245" height="27" viewBox="0 0 245 27" fill="none" xmlns="http://www.w3.org/2000/svg">
<rect width="99" height="3" transform="matrix(1 0 0 -1 0 9)" fill="black"/>
<rect width="99" height="3" transform="matrix(1 0 0 -1 146 9)" fill="black"/>
<path d="M135.619 0.168356C135.356 -0.00764082 135.013 -0.0483038 134.712 0.0589139C132.62 0.801339 130.102 1.11016 127.438 1.43706C123.57 1.91127 119.187 2.44901 114.785 4.43117C111.574 5.87753 109.65 7.95744 109.067 10.6132C108.319 14.0214 110.049 17.5523 111.595 19.4143C110.133 21.4739 108.937 23.5183 108.072 25.4102C107.872 25.8466 108.102 26.347 108.583 26.5278C108.701 26.572 108.824 26.5932 108.944 26.5932C109.314 26.5932 109.666 26.3941 109.816 26.0646C110.611 24.3253 111.696 22.4522 113.017 20.5612C114.37 21.3046 116.303 21.8202 118.571 21.8202C121.295 21.8202 124.488 21.0814 127.691 19.1179C134.85 14.7295 135.445 7.56609 135.923 1.81015L135.997 0.92213C136.023 0.628365 135.879 0.343782 135.619 0.168356ZM126.633 17.7008C121.542 20.8225 116.488 20.4515 114.058 19.1381C116.179 16.3534 118.806 13.5989 121.817 11.2273L127.185 12.2141C127.248 12.2258 127.311 12.2314 127.374 12.2314C127.813 12.2314 128.207 11.9512 128.298 11.5458C128.401 11.0827 128.071 10.6313 127.56 10.5372L123.702 9.82798C125.354 8.68001 127.098 7.65232 128.927 6.81043C129.393 6.59657 129.578 6.0817 129.342 5.66035C129.106 5.23901 128.536 5.07197 128.073 5.28498C125.567 6.43825 123.211 7.91672 121.034 9.58646C120.965 9.62689 120.904 9.67702 120.848 9.73257C119.911 10.4597 119.007 11.2194 118.143 12.0091L117.605 9.14094C117.518 8.67505 117.028 8.36538 116.517 8.44088C116.002 8.52027 115.657 8.96192 115.744 9.4278L116.521 13.57C115.132 14.9706 113.862 16.426 112.724 17.8939C111.545 16.2503 110.356 13.5124 110.919 10.9472C111.382 8.83827 112.966 7.16163 115.626 5.96336C119.749 4.10678 123.968 3.58911 127.691 3.13241C129.925 2.85838 132.06 2.59661 134.007 2.08037C133.541 7.64941 132.886 13.868 126.633 17.7008Z" fill="#007E23"/>
<path d="M110 9.42857L115 4.5L122 3L135 1.5L133.51 8.53061L130.571 16.1633L125.314 19.7551L120.5 21H116L112.449 19.7551L110 14.3673V9.42857Z" fill="#007E23"/>
</svg>
