<svg width="180" height="141" viewBox="0 0 180 141" fill="none" xmlns="http://www.w3.org/2000/svg">
<path d="M178.261 76.9101C178.261 68.7769 172.68 61.8486 165.13 58.8363C168.084 56.1252 170.054 52.2092 170.054 47.992C170.054 39.5575 162.504 32.6292 153.313 32.6292C152.656 32.6292 152 32.6292 151.671 32.6292C152.656 30.5206 153.313 28.1108 153.313 25.7009C153.313 17.2665 145.763 10.3382 136.571 10.3382C133.617 10.3382 130.991 10.9406 128.693 12.1455C126.395 6.12092 120.158 1 112.937 1C103.745 1 96.5236 8.832 96.1953 14.8566V120.287H96.5236C96.5236 131.132 106.043 139.566 117.861 139.566C128.365 139.566 136.9 132.638 138.869 123.601C140.839 124.203 143.137 124.505 145.434 124.505C157.252 124.505 166.771 115.769 166.771 104.925C166.771 101.611 165.787 98.2975 164.145 95.2852C172.024 92.8753 178.261 85.6458 178.261 76.9101Z" fill="#E5CFFA"/>
<path d="M1 76.9101C1 68.7769 6.58043 61.8486 14.1304 58.8363C11.1761 56.1252 9.20652 52.2092 9.20652 47.992C9.20652 39.5575 16.7565 32.6292 25.9478 32.6292C26.6043 32.6292 27.2609 32.6292 27.5891 32.6292C26.6043 30.5206 25.9478 28.1108 25.9478 25.7009C25.9478 17.2665 33.4978 10.3382 42.6891 10.3382C45.6435 10.3382 48.2696 10.9406 50.5674 12.1455C52.8652 6.12092 59.1022 1 66.3239 1C75.5152 1 82.737 8.832 83.0652 14.8566V120.287H82.737C82.737 131.132 73.2174 139.566 61.4 139.566C50.8957 139.566 42.3609 132.638 40.3913 123.601C38.4217 124.203 36.1239 124.505 33.8261 124.505C22.0087 124.505 12.4891 115.769 12.4891 104.925C12.4891 101.611 13.4739 98.2975 15.1152 95.2852C7.23696 92.8753 1 85.6458 1 76.9101Z" fill="#E5CFFA"/>
<path d="M178.261 76.9101C178.261 68.7769 172.68 61.8486 165.13 58.8363C168.084 56.1252 170.054 52.2092 170.054 47.992C170.054 39.5575 162.504 32.6292 153.313 32.6292C152.656 32.6292 152 32.6292 151.671 32.6292C152.656 30.5206 153.313 28.1108 153.313 25.7009C153.313 17.2665 145.763 10.3382 136.571 10.3382C133.617 10.3382 130.991 10.9406 128.693 12.1455C126.395 6.12092 120.158 1 112.937 1C103.745 1 96.5236 8.832 96.1953 14.8566V120.287H96.5236C96.5236 131.132 106.043 139.566 117.861 139.566C128.365 139.566 136.9 132.638 138.869 123.601C140.839 124.203 143.137 124.505 145.434 124.505C157.252 124.505 166.771 115.769 166.771 104.925C166.771 101.611 165.787 98.2975 164.145 95.2852C172.024 92.8753 178.261 85.6458 178.261 76.9101Z" stroke="black" stroke-width="2" stroke-miterlimit="10" stroke-linecap="round" stroke-linejoin="round"/>
<path d="M1 76.9101C1 68.7769 6.58044 61.8486 14.1304 58.8363C11.1761 56.1252 9.20652 52.2092 9.20652 47.992C9.20652 39.5575 16.7565 32.6292 25.9478 32.6292C26.6043 32.6292 27.2609 32.6292 27.5891 32.6292C26.6043 30.5206 25.9478 28.1108 25.9478 25.7009C25.9478 17.2665 33.4978 10.3382 42.6891 10.3382C45.6435 10.3382 48.2696 10.9406 50.5674 12.1455C52.8652 6.12092 59.1022 1 66.3239 1C75.5152 1 82.737 8.832 83.0652 14.8566V120.287H82.737C82.737 131.132 73.2174 139.566 61.4 139.566C50.8957 139.566 42.3609 132.638 40.3913 123.601C38.4217 124.203 36.1239 124.505 33.8261 124.505C22.0087 124.505 12.4891 115.769 12.4891 104.925C12.4891 101.611 13.4739 98.2975 15.1152 95.2852C7.23696 92.8753 1 85.6458 1 76.9101Z" stroke="black" stroke-width="2" stroke-miterlimit="10" stroke-linecap="round" stroke-linejoin="round"/>
<path d="M35.4688 81.7281C35.4688 81.7281 50.5688 79.6195 57.134 93.1749C64.3557 108.236 54.8361 119.382 40.7209 123.599" stroke="black" stroke-width="2" stroke-miterlimit="10" stroke-linecap="round" stroke-linejoin="round"/>
<path d="M68.6223 37.7498C68.6223 37.7498 60.4158 49.7991 45.6441 46.7867C30.8723 43.7744 27.918 32.6289 27.918 32.6289" stroke="black" stroke-width="2" stroke-miterlimit="10" stroke-linecap="round" stroke-linejoin="round"/>
<path d="M68.6221 64.862C68.2939 64.5608 64.3547 51.9091 47.2852 47.3906" stroke="black" stroke-width="2" stroke-miterlimit="10" stroke-linecap="round" stroke-linejoin="round"/>
<path d="M127.051 66.668C127.051 66.668 123.112 79.9221 135.586 90.164C141.495 94.9836 153.312 96.4898 163.488 95.2849" stroke="black" stroke-width="2" stroke-miterlimit="10" stroke-linecap="round" stroke-linejoin="round"/>
<path d="M122.457 41.9671C122.457 41.9671 131.32 47.088 138.87 44.9794C146.42 42.8707 151.672 32.6289 151.672 32.6289" stroke="black" stroke-width="2" stroke-miterlimit="10" stroke-linecap="round" stroke-linejoin="round"/>
<path d="M115.891 108.238C115.891 108.238 120.158 92.875 139.854 92.875" stroke="black" stroke-width="2" stroke-miterlimit="10" stroke-linecap="round" stroke-linejoin="round"/>
</svg>
