<svg width="425" height="226" viewBox="0 0 425 226" fill="none" xmlns="http://www.w3.org/2000/svg">
<g filter="url(#filter0_ddddd_1_206)">
<rect x="80" width="265" height="46" rx="23" fill="#007E23"/>
</g>
<path d="M130.796 26.254V28H122.894V15.76H125.342V26.254H130.796ZM136.944 26.524C137.52 26.524 138.048 26.41 138.528 26.182C139.02 25.954 139.524 25.624 140.04 25.192L140.76 26.686C140.184 27.214 139.59 27.61 138.978 27.874C138.378 28.138 137.694 28.27 136.926 28.27C135.822 28.27 134.898 28.042 134.154 27.586C133.41 27.118 132.852 26.494 132.48 25.714C132.12 24.922 131.94 24.034 131.94 23.05C131.94 22.042 132.126 21.148 132.498 20.368C132.87 19.576 133.428 18.952 134.172 18.496C134.916 18.04 135.834 17.812 136.926 17.812C138.162 17.812 139.128 18.16 139.824 18.856C140.532 19.54 140.892 20.506 140.904 21.754C140.904 22.15 140.838 22.594 140.706 23.086H134.28C134.292 24.19 134.514 25.042 134.946 25.642C135.378 26.23 136.044 26.524 136.944 26.524ZM136.818 19.432C136.182 19.432 135.666 19.618 135.27 19.99C134.874 20.35 134.598 20.848 134.442 21.484H138.582V21.268C138.582 20.68 138.414 20.23 138.078 19.918C137.754 19.594 137.334 19.432 136.818 19.432ZM149.399 27.478C149.051 27.706 148.667 27.88 148.247 28C147.839 28.12 147.431 28.18 147.023 28.18C145.883 28.18 145.031 27.904 144.467 27.352C143.903 26.788 143.621 25.984 143.621 24.94V19.792H142.091V18.784L143.873 18.172L144.557 15.634H145.997V18.082H148.877V19.792H145.997V24.436C145.997 25.144 146.105 25.654 146.321 25.966C146.549 26.266 146.897 26.416 147.365 26.416C147.869 26.416 148.421 26.266 149.021 25.966L149.399 27.478ZM150.678 19.342C151.038 19.078 151.302 18.736 151.47 18.316C151.65 17.896 151.74 17.428 151.74 16.912C151.74 16.276 151.608 15.574 151.344 14.806L153.81 14.464C153.978 15.088 154.062 15.694 154.062 16.282C154.062 18.082 153.192 19.438 151.452 20.35L150.678 19.342ZM159.902 28.27C158.546 28.27 157.37 28.006 156.374 27.478L156.914 25.822C157.862 26.29 158.846 26.524 159.866 26.524C160.454 26.524 160.922 26.422 161.27 26.218C161.63 26.002 161.81 25.684 161.81 25.264C161.81 24.916 161.642 24.64 161.306 24.436C160.982 24.232 160.466 24.004 159.758 23.752C159.098 23.512 158.558 23.29 158.138 23.086C157.73 22.882 157.376 22.6 157.076 22.24C156.788 21.868 156.644 21.412 156.644 20.872C156.644 19.876 157.004 19.12 157.724 18.604C158.444 18.076 159.416 17.812 160.64 17.812C161.204 17.812 161.756 17.878 162.296 18.01C162.848 18.13 163.334 18.31 163.754 18.55L163.214 20.206C162.374 19.774 161.534 19.558 160.694 19.558C160.166 19.558 159.746 19.648 159.434 19.828C159.134 19.996 158.984 20.26 158.984 20.62C158.984 20.968 159.14 21.238 159.452 21.43C159.764 21.61 160.274 21.826 160.982 22.078C161.654 22.306 162.194 22.528 162.602 22.744C163.022 22.948 163.382 23.248 163.682 23.644C163.994 24.028 164.15 24.52 164.15 25.12C164.15 26.104 163.778 26.878 163.034 27.442C162.302 27.994 161.258 28.27 159.902 28.27ZM183.798 15.76V28H181.404V24.238L181.566 19.54L178.416 24.544H176.616L173.43 19.468L173.628 24.238V28H171.234V15.76H173.502L177.516 22.042L181.53 15.76H183.798ZM191.401 26.524C191.977 26.524 192.505 26.41 192.985 26.182C193.477 25.954 193.981 25.624 194.497 25.192L195.217 26.686C194.641 27.214 194.047 27.61 193.435 27.874C192.835 28.138 192.151 28.27 191.383 28.27C190.279 28.27 189.355 28.042 188.611 27.586C187.867 27.118 187.309 26.494 186.937 25.714C186.577 24.922 186.397 24.034 186.397 23.05C186.397 22.042 186.583 21.148 186.955 20.368C187.327 19.576 187.885 18.952 188.629 18.496C189.373 18.04 190.291 17.812 191.383 17.812C192.619 17.812 193.585 18.16 194.281 18.856C194.989 19.54 195.349 20.506 195.361 21.754C195.361 22.15 195.295 22.594 195.163 23.086H188.737C188.749 24.19 188.971 25.042 189.403 25.642C189.835 26.23 190.501 26.524 191.401 26.524ZM191.275 19.432C190.639 19.432 190.123 19.618 189.727 19.99C189.331 20.35 189.055 20.848 188.899 21.484H193.039V21.268C193.039 20.68 192.871 20.23 192.535 19.918C192.211 19.594 191.791 19.432 191.275 19.432ZM201.948 26.524C202.524 26.524 203.052 26.41 203.532 26.182C204.024 25.954 204.528 25.624 205.044 25.192L205.764 26.686C205.188 27.214 204.594 27.61 203.982 27.874C203.382 28.138 202.698 28.27 201.93 28.27C200.826 28.27 199.902 28.042 199.158 27.586C198.414 27.118 197.856 26.494 197.484 25.714C197.124 24.922 196.944 24.034 196.944 23.05C196.944 22.042 197.13 21.148 197.502 20.368C197.874 19.576 198.432 18.952 199.176 18.496C199.92 18.04 200.838 17.812 201.93 17.812C203.166 17.812 204.132 18.16 204.828 18.856C205.536 19.54 205.896 20.506 205.908 21.754C205.908 22.15 205.842 22.594 205.71 23.086H199.284C199.296 24.19 199.518 25.042 199.95 25.642C200.382 26.23 201.048 26.524 201.948 26.524ZM201.822 19.432C201.186 19.432 200.67 19.618 200.274 19.99C199.878 20.35 199.602 20.848 199.446 21.484H203.586V21.268C203.586 20.68 203.418 20.23 203.082 19.918C202.758 19.594 202.338 19.432 201.822 19.432ZM214.403 27.478C214.055 27.706 213.671 27.88 213.251 28C212.843 28.12 212.435 28.18 212.027 28.18C210.887 28.18 210.035 27.904 209.471 27.352C208.907 26.788 208.625 25.984 208.625 24.94V19.792H207.095V18.784L208.877 18.172L209.561 15.634H211.001V18.082H213.881V19.792H211.001V24.436C211.001 25.144 211.109 25.654 211.325 25.966C211.553 26.266 211.901 26.416 212.369 26.416C212.873 26.416 213.425 26.266 214.025 25.966L214.403 27.478ZM227.112 27.478C226.764 27.706 226.38 27.88 225.96 28C225.552 28.12 225.144 28.18 224.736 28.18C223.596 28.18 222.744 27.904 222.18 27.352C221.616 26.788 221.334 25.984 221.334 24.94V19.792H219.804V18.784L221.586 18.172L222.27 15.634H223.71V18.082H226.59V19.792H223.71V24.436C223.71 25.144 223.818 25.654 224.034 25.966C224.262 26.266 224.61 26.416 225.078 26.416C225.582 26.416 226.134 26.266 226.734 25.966L227.112 27.478ZM234.637 17.812C235.837 17.812 236.665 18.13 237.121 18.766C237.577 19.39 237.805 20.296 237.805 21.484V28H235.429V21.754C235.429 20.962 235.315 20.404 235.087 20.08C234.871 19.756 234.481 19.594 233.917 19.594C233.161 19.594 232.375 19.9 231.559 20.512V28H229.183V13.6H231.559V18.82C232.615 18.148 233.641 17.812 234.637 17.812ZM245.067 26.524C245.643 26.524 246.171 26.41 246.651 26.182C247.143 25.954 247.647 25.624 248.163 25.192L248.883 26.686C248.307 27.214 247.713 27.61 247.101 27.874C246.501 28.138 245.817 28.27 245.049 28.27C243.945 28.27 243.021 28.042 242.277 27.586C241.533 27.118 240.975 26.494 240.603 25.714C240.243 24.922 240.063 24.034 240.063 23.05C240.063 22.042 240.249 21.148 240.621 20.368C240.993 19.576 241.551 18.952 242.295 18.496C243.039 18.04 243.957 17.812 245.049 17.812C246.285 17.812 247.251 18.16 247.947 18.856C248.655 19.54 249.015 20.506 249.027 21.754C249.027 22.15 248.961 22.594 248.829 23.086H242.403C242.415 24.19 242.637 25.042 243.069 25.642C243.501 26.23 244.167 26.524 245.067 26.524ZM244.941 19.432C244.305 19.432 243.789 19.618 243.393 19.99C242.997 20.35 242.721 20.848 242.565 21.484H246.705V21.268C246.705 20.68 246.537 20.23 246.201 19.918C245.877 19.594 245.457 19.432 244.941 19.432ZM264.704 17.524H260.978V28H258.53V17.524H254.804V15.76H264.704V17.524ZM270.978 26.524C271.554 26.524 272.082 26.41 272.562 26.182C273.054 25.954 273.558 25.624 274.074 25.192L274.794 26.686C274.218 27.214 273.624 27.61 273.012 27.874C272.412 28.138 271.728 28.27 270.96 28.27C269.856 28.27 268.932 28.042 268.188 27.586C267.444 27.118 266.886 26.494 266.514 25.714C266.154 24.922 265.974 24.034 265.974 23.05C265.974 22.042 266.16 21.148 266.532 20.368C266.904 19.576 267.462 18.952 268.206 18.496C268.95 18.04 269.868 17.812 270.96 17.812C272.196 17.812 273.162 18.16 273.858 18.856C274.566 19.54 274.926 20.506 274.938 21.754C274.938 22.15 274.872 22.594 274.74 23.086H268.314C268.326 24.19 268.548 25.042 268.98 25.642C269.412 26.23 270.078 26.524 270.978 26.524ZM270.852 19.432C270.216 19.432 269.7 19.618 269.304 19.99C268.908 20.35 268.632 20.848 268.476 21.484H272.616V21.268C272.616 20.68 272.448 20.23 272.112 19.918C271.788 19.594 271.368 19.432 270.852 19.432ZM286.079 27.928C285.551 28.084 285.005 28.168 284.441 28.18C283.913 28.18 283.469 28.09 283.109 27.91C282.761 27.73 282.515 27.424 282.371 26.992C281.843 27.388 281.327 27.688 280.823 27.892C280.319 28.096 279.785 28.198 279.221 28.198C278.429 28.198 277.781 27.97 277.277 27.514C276.773 27.046 276.521 26.47 276.521 25.786C276.521 25.102 276.701 24.544 277.061 24.112C277.421 23.68 277.919 23.332 278.555 23.068C279.203 22.804 280.115 22.504 281.291 22.168L282.227 21.898V21.502C282.227 20.89 282.095 20.422 281.831 20.098C281.579 19.762 281.189 19.594 280.661 19.594C280.109 19.594 279.563 19.708 279.023 19.936C278.495 20.164 277.889 20.566 277.205 21.142L276.575 19.576C278.075 18.4 279.659 17.812 281.327 17.812C282.419 17.812 283.235 18.106 283.775 18.694C284.327 19.27 284.603 20.248 284.603 21.628V25.696C284.603 25.96 284.651 26.152 284.747 26.272C284.843 26.38 285.005 26.434 285.233 26.434C285.461 26.434 285.701 26.386 285.953 26.29L286.079 27.928ZM278.897 25.516C278.897 26.14 279.245 26.452 279.941 26.452C280.289 26.452 280.643 26.374 281.003 26.218C281.363 26.062 281.771 25.828 282.227 25.516V23.284L281.579 23.5C280.559 23.836 279.857 24.148 279.473 24.436C279.089 24.724 278.897 25.084 278.897 25.516ZM299.343 17.812C300.519 17.812 301.329 18.13 301.773 18.766C302.217 19.39 302.439 20.296 302.439 21.484V28H300.081V21.754C300.081 20.962 299.973 20.404 299.757 20.08C299.553 19.756 299.175 19.594 298.623 19.594C297.927 19.594 297.153 19.912 296.301 20.548L296.265 20.458C296.301 20.782 296.319 21.124 296.319 21.484V28H293.961V21.754C293.961 20.962 293.853 20.404 293.637 20.08C293.433 19.756 293.055 19.594 292.503 19.594C291.795 19.594 291.033 19.906 290.217 20.53V28H287.841V18.082H289.623L289.911 19C291.075 18.208 292.179 17.812 293.223 17.812C293.907 17.812 294.459 17.926 294.879 18.154C295.311 18.37 295.641 18.688 295.869 19.108C297.105 18.244 298.263 17.812 299.343 17.812Z" fill="white"/>
<defs>
<filter id="filter0_ddddd_1_206" x="0" y="0" width="425" height="226" filterUnits="userSpaceOnUse" color-interpolation-filters="sRGB">
<feFlood flood-opacity="0" result="BackgroundImageFix"/>
<feColorMatrix in="SourceAlpha" type="matrix" values="0 0 0 0 0 0 0 0 0 0 0 0 0 0 0 0 0 0 127 0" result="hardAlpha"/>
<feOffset dy="6.6501"/>
<feGaussianBlur stdDeviation="2.66004"/>
<feColorMatrix type="matrix" values="0 0 0 0 0 0 0 0 0 0 0 0 0 0 0 0 0 0 0.0282725 0"/>
<feBlend mode="normal" in2="BackgroundImageFix" result="effect1_dropShadow_1_206"/>
<feColorMatrix in="SourceAlpha" type="matrix" values="0 0 0 0 0 0 0 0 0 0 0 0 0 0 0 0 0 0 127 0" result="hardAlpha"/>
<feOffset dy="12.5216"/>
<feGaussianBlur stdDeviation="5.00862"/>
<feColorMatrix type="matrix" values="0 0 0 0 0 0 0 0 0 0 0 0 0 0 0 0 0 0 0.035 0"/>
<feBlend mode="normal" in2="effect1_dropShadow_1_206" result="effect2_dropShadow_1_206"/>
<feColorMatrix in="SourceAlpha" type="matrix" values="0 0 0 0 0 0 0 0 0 0 0 0 0 0 0 0 0 0 127 0" result="hardAlpha"/>
<feOffset dy="22.3363"/>
<feGaussianBlur stdDeviation="8.93452"/>
<feColorMatrix type="matrix" values="0 0 0 0 0 0 0 0 0 0 0 0 0 0 0 0 0 0 0.0417275 0"/>
<feBlend mode="normal" in2="effect2_dropShadow_1_206" result="effect3_dropShadow_1_206"/>
<feColorMatrix in="SourceAlpha" type="matrix" values="0 0 0 0 0 0 0 0 0 0 0 0 0 0 0 0 0 0 127 0" result="hardAlpha"/>
<feOffset dy="41.7776"/>
<feGaussianBlur stdDeviation="16.711"/>
<feColorMatrix type="matrix" values="0 0 0 0 0 0 0 0 0 0 0 0 0 0 0 0 0 0 0.0503198 0"/>
<feBlend mode="normal" in2="effect3_dropShadow_1_206" result="effect4_dropShadow_1_206"/>
<feColorMatrix in="SourceAlpha" type="matrix" values="0 0 0 0 0 0 0 0 0 0 0 0 0 0 0 0 0 0 127 0" result="hardAlpha"/>
<feOffset dy="100"/>
<feGaussianBlur stdDeviation="40"/>
<feColorMatrix type="matrix" values="0 0 0 0 0 0 0 0 0 0 0 0 0 0 0 0 0 0 0.07 0"/>
<feBlend mode="normal" in2="effect4_dropShadow_1_206" result="effect5_dropShadow_1_206"/>
<feBlend mode="normal" in="SourceGraphic" in2="effect5_dropShadow_1_206" result="shape"/>
</filter>
</defs>
</svg>
