<svg width="148" height="152" viewBox="0 0 148 152" fill="none" xmlns="http://www.w3.org/2000/svg">
<path d="M71.6953 141.623L65.6122 149.162L38.3673 131.584L45.8216 124.934L71.6953 141.623Z" fill="#D3EEF5" stroke="black" stroke-width="3"/>
<path d="M46.0112 114.99L27.2387 132.072L46.0112 114.99ZM46.0112 114.99L21.6695 92.8472L2.68634 110.121L2.68562 110.122C1.88949 110.845 1.5 111.742 1.5 112.646C1.5 113.577 1.89251 114.472 2.68562 115.193L21.2594 132.072C22.0248 132.768 23.1035 133.183 24.2491 133.183C25.4166 133.183 26.4702 132.771 27.238 132.073L46.0112 114.99ZM45.3102 44.6118L47.6831 39.3546C59.3525 40.2613 73.2157 47.8433 84.492 58.0854C95.7232 68.2865 103.976 80.7484 105.054 91.1943L98.9881 93.4556C95.5692 83.1607 87.6827 72.4806 77.9575 63.6453C68.2446 54.8211 56.5455 47.6984 45.3102 44.6118Z" fill="#D3EEF5" stroke="black" stroke-width="3"/>
<path d="M146.277 55.9728L146.278 55.975C146.449 56.566 146.102 57.3318 145.195 57.5585C145.194 57.5589 145.192 57.5592 145.191 57.5596L114.058 65.0645L114.034 65.0702L114.011 65.0766C113.928 65.0995 113.789 65.1175 113.61 65.1175C112.777 65.1175 112.213 64.6323 112.058 64.0949L112.056 64.0867C111.891 63.5275 112.228 62.7388 113.163 62.5099C113.164 62.5098 113.165 62.5097 113.165 62.5095L144.304 55.0033L144.327 54.9976L144.35 54.9912C144.442 54.9658 144.559 54.9503 144.726 54.9503C145.54 54.9503 146.125 55.4421 146.277 55.9728ZM77.9375 32.7033L77.9162 32.6974L77.8946 32.6921C76.9556 32.4632 76.6179 31.6935 76.7871 31.1089L76.7883 31.1045L84.9646 2.5299C84.9649 2.52872 84.9653 2.52755 84.9656 2.52637C85.1232 1.99559 85.7015 1.5 86.5182 1.5C86.6769 1.5 86.8099 1.51382 86.9538 1.54983L86.9681 1.55342L86.9825 1.55673C87.8861 1.76406 88.244 2.53514 88.0703 3.13532L88.069 3.13965L79.8928 31.7143C79.8924 31.7155 79.892 31.7167 79.8917 31.7179C79.7359 32.242 79.1374 32.7442 78.3392 32.7442C78.1398 32.7442 78.0251 32.7274 77.9375 32.7033ZM26.0972 87.7004L42.665 50.8141C52.9415 53.4619 64.0016 60.153 73.242 68.6315C82.4187 77.0516 89.63 87.0773 92.5168 96.3703L52.1746 111.636L26.0972 87.7004ZM97.1403 48.5087C96.8429 48.7817 96.4386 48.9427 95.9615 48.9427C95.5177 48.9427 95.0978 48.7796 94.7708 48.4977C94.4876 48.2324 94.3653 47.9236 94.3653 47.6008C94.3653 47.2736 94.491 46.9607 94.7827 46.6929L114.443 28.6472C114.741 28.3743 115.145 28.2133 115.622 28.2133C116.099 28.2133 116.504 28.3743 116.801 28.6472C117.366 29.1659 117.366 29.9444 116.801 30.463L97.1403 48.5087Z" fill="#D3EEF5" stroke="black" stroke-width="3"/>
</svg>
