<svg width="1728" height="2224" viewBox="0 0 1728 2224" fill="none" xmlns="http://www.w3.org/2000/svg">
<rect width="1728" height="2155.38" fill="#F7EFD9"/>
<path d="M233.436 296.323C238.921 299.248 245.714 299.845 252.403 298.27C260.801 296.016 267.572 290.461 270.964 282.955C274.355 275.444 274.026 266.296 270.184 258.09C267.621 252.619 263.842 248.134 259.188 245.204C261.037 243.389 262.543 241.003 263.756 238.261C264.966 235.397 265.54 232.277 265.434 229.141C265.329 226.006 264.547 222.936 263.148 220.168C259.358 213.049 251.278 208.837 243.266 209.228C245.293 202.965 244.58 195.679 240.799 190.316C235.147 182.376 222.093 180.819 213.261 183.849L213.065 183.902C198.13 189.229 185.419 200.337 175.952 216.294C171.742 214.345 167.534 212.395 163.42 210.859C161.61 210.246 159.756 211.182 158.984 213.149C158.741 213.873 158.694 214.547 158.843 215.167C159.091 216.199 159.977 217.282 161.102 217.639C171.868 221.79 183.718 227.847 195.179 234.89C197.127 245.583 196.07 262.801 194.283 268.342C194.04 269.066 193.994 269.738 194.143 270.357C194.441 271.597 195.276 272.474 196.401 272.833C198.212 273.446 200.065 272.508 200.644 270.594C202.527 264.59 203.354 250.732 202.382 239.775C209.586 244.661 216.593 249.597 222.868 254.952C224.306 260.064 224.855 263.217 223.452 266.892C223.21 267.616 223.165 268.289 223.363 269.115C223.611 270.147 224.495 271.232 225.425 271.642C227.236 272.255 229.139 271.523 229.912 269.556C230.783 267.124 231.214 264.59 231.058 262.21C235.864 266.64 240.034 271.02 243.569 275.348C244.748 276.793 246.899 277.093 248.457 275.798C249.821 274.552 250.105 272.276 248.877 270.625C242.396 262.686 233.764 254.447 223.715 246.365C228.305 245.574 231.769 243.546 234.736 240.33C236.05 238.877 235.944 236.708 234.569 235.315C233.196 233.924 231.144 234.034 229.83 235.487C227.349 238.132 223.935 240.368 214.599 239.574C204.258 232.011 193.04 225.124 182.121 219.477C190.767 205.278 202.113 195.417 215.143 190.82L215.338 190.768C221.877 188.574 231.704 189.676 235.193 194.677C238.731 199.886 237.98 208.005 233.354 212.106C231.99 213.351 231.852 215.368 232.835 216.864C233.819 218.36 235.628 218.974 237.091 218.14C244.164 214.704 253.312 217.307 257.004 224.014C258.824 227.265 258.841 231.659 257.292 235.594C255.839 239.061 253.309 241.502 250.38 242.288C248.818 242.707 247.699 244.107 247.706 245.866C247.712 247.623 248.889 249.065 250.407 249.317C255.934 250.697 260.935 255.071 263.892 261.317C266.797 267.354 267.02 274.333 264.598 279.822C262.177 285.311 256.964 289.567 250.665 291.036C244.416 292.713 237.864 291.394 233.452 287.739C232.422 286.915 231.151 286.817 230.03 287.338C228.908 287.858 228.13 288.949 228.038 290.291C227.569 295.257 223.382 299.457 218.693 299.838C214.002 300.217 209.396 296.613 208.254 291.862C207.856 290.209 206.288 288.871 204.676 289.082C203.062 289.297 201.749 290.75 201.561 292.559C201.339 298.557 196.718 304.414 191.057 305.933C188.713 306.562 183.189 306.066 177.703 302.26C174.174 299.687 169.513 294.999 168.258 286.32C166.956 278.309 168.208 273.138 173.551 252.128C174.272 249.076 175.088 245.557 176.05 241.779C176.629 239.864 175.497 237.75 173.544 237.392C171.731 236.778 169.733 237.975 169.397 240.045C168.437 243.822 167.618 247.34 166.898 250.393C161.361 272.333 159.818 278.025 161.52 287.687C161.768 288.721 161.821 289.806 162.02 290.632C164.254 299.929 169.554 305.546 174.013 308.53C180.774 313.313 188.304 314.37 192.796 313.165C198.653 311.593 203.475 307.441 206.091 301.9C209.477 305.612 214.325 307.609 219.26 307.387C225.511 306.586 230.917 302.276 233.436 296.323Z" fill="#007E23" fill-opacity="0.2"/>
<path d="M1625.8 884.682C1630.97 881.163 1634.89 875.273 1636.99 868.38C1639.4 859.587 1638.29 850.605 1633.87 843.717C1629.46 836.826 1621.82 832.499 1613.18 831.849C1607.42 831.418 1601.84 832.594 1597.1 835.353C1596.55 832.75 1595.36 830.17 1593.74 827.677C1592.01 825.126 1589.75 823.025 1587.14 821.534C1584.53 820.044 1581.63 819.205 1578.66 819.08C1570.93 818.932 1563.4 824.165 1559.67 831.666C1555.58 826.65 1549.27 823.614 1542.98 824.348C1533.64 825.482 1525.76 836.592 1523.77 846.175L1523.71 846.38C1520.51 862.686 1523.15 879.89 1531.39 896.59C1527.67 899.442 1523.95 902.29 1520.61 905.262C1519.19 906.602 1519.02 908.766 1520.24 910.464C1520.7 911.052 1521.23 911.436 1521.81 911.613C1522.78 911.909 1524.11 911.649 1524.97 910.805C1533.81 903.092 1544.75 895.356 1556.29 888.474C1566.01 892.107 1579.53 901.781 1583.15 906.212C1583.62 906.799 1584.15 907.181 1584.73 907.359C1585.89 907.715 1587.03 907.397 1587.89 906.553C1589.31 905.213 1589.48 903.05 1588.21 901.554C1584.26 896.801 1573.36 889.036 1563.93 884.38C1571.56 880.286 1579.14 876.397 1586.68 873.386C1591.58 874.662 1594.43 875.756 1596.72 878.894C1597.19 879.48 1597.72 879.863 1598.49 880.099C1599.46 880.395 1600.8 880.138 1601.6 879.499C1603.02 878.157 1603.38 876.053 1602.17 874.353C1600.62 872.329 1598.77 870.655 1596.75 869.594C1602.8 867.454 1608.48 865.869 1613.8 864.837C1615.58 864.493 1616.91 862.684 1616.64 860.609C1616.32 858.736 1614.6 857.326 1612.63 857.61C1602.87 859.501 1591.78 863.2 1580.1 868.27C1581.77 863.687 1581.87 859.504 1580.75 855.173C1580.23 853.241 1578.4 852.24 1576.57 852.788C1574.74 853.336 1573.79 855.262 1574.31 857.194C1575.22 860.794 1575.31 865.036 1569.94 873.143C1558.54 878.743 1547.24 885.483 1537.11 892.578C1529.89 877.516 1527.58 862.186 1530.41 847.986L1530.47 847.781C1531.99 840.711 1537.86 832.313 1543.7 831.663C1549.75 831.073 1556 835.865 1557 842.155C1557.33 844.028 1558.91 845.175 1560.63 845.036C1562.35 844.895 1563.76 843.557 1563.82 841.802C1564.59 833.617 1571.35 826.597 1578.69 826.624C1582.26 826.61 1585.86 828.817 1588.29 832.22C1590.39 835.298 1591.1 838.839 1590.26 841.905C1589.81 843.541 1590.39 845.269 1591.83 846.152C1593.26 847.036 1595.04 846.692 1596.01 845.437C1599.93 841.097 1606.04 838.752 1612.63 839.217C1619.03 839.623 1624.84 842.949 1628.1 847.934C1631.35 852.917 1632.19 859.821 1630.2 866.305C1628.41 872.848 1624.02 878.153 1618.8 880.325C1617.61 880.847 1616.89 881.956 1616.74 883.241C1616.6 884.527 1617.1 885.787 1618.15 886.551C1621.97 889.49 1623.28 895.431 1621.22 899.897C1619.15 904.364 1613.88 906.739 1609.42 905.377C1607.87 904.903 1605.99 905.655 1605.34 907.231C1604.7 908.811 1605.22 910.742 1606.61 911.829C1611.39 915.065 1613.84 922.24 1612.21 928.167C1611.54 930.622 1608.34 935.406 1602.46 938.481C1598.57 940.396 1592.39 942.272 1584.67 939.026C1577.47 936.159 1573.88 932.403 1559.43 916.906C1557.3 914.704 1554.84 912.18 1552.24 909.393C1550.97 907.896 1548.67 907.859 1547.39 909.458C1545.98 910.8 1545.94 913.226 1547.46 914.579C1550.06 917.365 1552.52 919.891 1554.65 922.092C1569.76 938.236 1573.62 942.522 1582.37 945.859C1583.34 946.155 1584.26 946.656 1585.03 946.893C1593.75 949.559 1601.02 947.57 1605.71 945.015C1613.04 941.273 1617.71 934.945 1619 930.241C1620.68 924.108 1619.73 917.613 1616.53 912.426C1621.27 911.217 1625.35 907.809 1627.67 903.199C1630.17 897.097 1629.39 889.989 1625.8 884.682Z" fill="#007E23" fill-opacity="0.2"/>
<path d="M227.118 1589.73C223.556 1584.44 217.809 1580.57 211.196 1578.67C202.773 1576.53 194.331 1578.11 188.019 1583.08C181.704 1588.05 177.96 1596.31 177.739 1605.46C177.592 1611.56 178.958 1617.39 181.782 1622.28C179.346 1622.97 176.961 1624.34 174.678 1626.17C172.344 1628.11 170.46 1630.58 169.17 1633.41C167.879 1636.24 167.217 1639.34 167.234 1642.47C167.446 1650.64 172.736 1658.35 179.997 1661.94C175.441 1666.49 172.857 1673.28 173.837 1679.89C175.334 1689.7 186.196 1697.51 195.347 1699.18L195.544 1699.23C211.107 1701.87 227.253 1698.3 242.668 1688.85C245.533 1692.64 248.396 1696.44 251.358 1699.83C252.689 1701.26 254.742 1701.34 256.293 1699.98C256.827 1699.46 257.166 1698.89 257.308 1698.27C257.544 1697.23 257.237 1695.84 256.4 1694.97C248.706 1685.99 240.894 1674.8 233.862 1662.92C236.856 1652.5 245.387 1637.79 249.413 1633.77C249.947 1633.25 250.284 1632.68 250.426 1632.06C250.709 1630.81 250.357 1629.62 249.52 1628.75C248.189 1627.32 246.135 1627.24 244.779 1628.64C240.464 1633.03 233.618 1644.88 229.644 1655.05C225.426 1647.18 221.405 1639.37 218.216 1631.54C219.199 1626.31 220.104 1623.25 222.967 1620.69C223.5 1620.17 223.837 1619.59 224.026 1618.76C224.262 1617.73 223.959 1616.33 223.317 1615.51C221.985 1614.08 219.978 1613.79 218.426 1615.15C216.583 1616.87 215.084 1618.9 214.172 1621.08C211.874 1614.8 210.117 1608.87 208.9 1603.3C208.493 1601.44 206.723 1600.11 204.773 1600.49C203.017 1600.92 201.762 1602.8 202.12 1604.86C204.351 1615.08 208.353 1626.62 213.678 1638.72C209.268 1637.16 205.309 1637.25 201.265 1638.63C199.462 1639.27 198.598 1641.24 199.2 1643.15C199.801 1645.06 201.665 1645.97 203.469 1645.33C206.831 1644.21 210.837 1643.92 218.747 1649.22C224.56 1661 231.446 1672.62 238.615 1682.99C224.702 1691.3 210.313 1694.43 196.757 1692.08L196.561 1692.03C189.808 1690.75 181.6 1684.94 180.72 1678.79C179.888 1672.44 184.134 1665.63 190.036 1664.28C191.792 1663.85 192.804 1662.13 192.595 1660.33C192.384 1658.52 191.054 1657.08 189.392 1657.1C181.618 1656.66 174.674 1649.85 174.366 1642.1C174.19 1638.33 176.113 1634.43 179.22 1631.71C182.035 1629.36 185.351 1628.45 188.288 1629.19C189.856 1629.59 191.463 1628.9 192.232 1627.34C193.003 1625.79 192.597 1623.93 191.366 1622.96C187.084 1619.02 184.59 1612.68 184.729 1605.7C184.822 1598.93 187.704 1592.65 192.268 1588.98C196.832 1585.32 203.322 1584.12 209.543 1585.92C215.811 1587.52 221.026 1591.91 223.316 1597.32C223.864 1598.55 224.946 1599.27 226.167 1599.36C227.389 1599.45 228.558 1598.87 229.233 1597.73C231.838 1593.56 237.396 1591.91 241.712 1593.88C246.029 1595.86 248.515 1601.31 247.429 1606.08C247.051 1607.74 247.848 1609.69 249.368 1610.3C250.891 1610.91 252.693 1610.27 253.658 1608.76C256.5 1603.56 263.173 1600.66 268.851 1602.1C271.202 1602.7 275.87 1605.86 279.045 1611.93C281.033 1615.94 283.088 1622.38 280.369 1630.68C277.986 1638.41 274.598 1642.37 260.602 1658.32C258.617 1660.67 256.343 1663.38 253.825 1666.25C252.468 1667.66 252.537 1670.09 254.107 1671.37C255.44 1672.8 257.735 1672.73 258.946 1671.06C261.462 1668.19 263.738 1665.48 265.723 1663.14C280.3 1646.45 284.177 1642.18 286.934 1632.79C287.17 1631.75 287.602 1630.77 287.791 1629.94C289.915 1620.61 287.704 1613.03 285.076 1608.2C281.205 1600.64 275.009 1595.99 270.503 1594.85C264.628 1593.35 258.53 1594.65 253.771 1598.26C252.412 1593.31 249.005 1589.16 244.541 1586.92C238.657 1584.55 231.973 1585.71 227.118 1589.73Z" fill="#007E23" fill-opacity="0.2"/>
<path d="M1536.79 1378.35C1539.94 1372.78 1541 1365.67 1539.99 1358.51C1538.47 1349.49 1533.72 1341.96 1526.87 1337.84C1520.03 1333.72 1511.37 1333.41 1503.35 1336.87C1498 1339.17 1493.49 1342.83 1490.39 1347.53C1488.81 1345.45 1486.66 1343.69 1484.16 1342.21C1481.55 1340.73 1478.64 1339.9 1475.68 1339.78C1472.71 1339.67 1469.75 1340.27 1467.04 1341.55C1460.05 1345.03 1455.49 1353.24 1455.28 1361.71C1449.51 1359.12 1442.58 1359.34 1437.25 1362.94C1429.34 1368.32 1426.93 1381.97 1429.15 1391.49L1429.19 1391.71C1433.14 1407.83 1442.71 1422.02 1457.09 1433.15C1454.94 1437.45 1452.8 1441.74 1451.05 1445.97C1450.34 1447.83 1451.09 1449.85 1452.9 1450.81C1453.56 1451.11 1454.19 1451.21 1454.79 1451.1C1455.78 1450.91 1456.87 1450.06 1457.29 1448.9C1461.98 1437.85 1468.56 1425.8 1476.03 1414.23C1486.27 1412.95 1502.44 1415.31 1507.55 1417.59C1508.21 1417.9 1508.84 1418 1509.44 1417.89C1510.63 1417.66 1511.52 1416.84 1511.94 1415.68C1512.65 1413.82 1511.9 1411.8 1510.13 1411.05C1504.6 1408.63 1491.58 1406.76 1481.16 1407C1486.29 1399.76 1491.46 1392.73 1496.97 1386.5C1501.9 1385.36 1504.91 1385.01 1508.28 1386.75C1508.95 1387.06 1509.58 1387.15 1510.37 1387C1511.37 1386.82 1512.45 1385.96 1512.91 1385.01C1513.62 1383.15 1513.06 1381.09 1511.26 1380.13C1509.03 1379.04 1506.67 1378.4 1504.41 1378.4C1508.94 1373.65 1513.38 1369.57 1517.72 1366.16C1519.17 1365.02 1519.6 1362.78 1518.49 1361.04C1517.42 1359.51 1515.29 1359.05 1513.64 1360.23C1505.68 1366.48 1497.28 1374.98 1488.92 1384.99C1488.51 1380.1 1486.84 1376.3 1484.02 1372.94C1482.75 1371.45 1480.69 1371.41 1479.28 1372.75C1477.86 1374.1 1477.82 1376.27 1479.1 1377.76C1481.41 1380.57 1483.28 1384.33 1481.85 1394.11C1473.97 1404.46 1466.66 1415.78 1460.54 1426.88C1447.76 1416.75 1439.27 1404.08 1435.87 1390.01L1435.84 1389.8C1434.24 1382.76 1435.99 1372.48 1440.96 1369.16C1446.13 1365.81 1453.74 1367.19 1457.28 1372.36C1458.36 1373.89 1460.25 1374.18 1461.73 1373.25C1463.22 1372.32 1463.93 1370.46 1463.24 1368.86C1460.51 1361.16 1463.63 1351.7 1470.23 1348.3C1473.43 1346.61 1477.58 1346.91 1481.18 1348.83C1484.35 1350.61 1486.47 1353.45 1487 1356.6C1487.28 1358.27 1488.52 1359.55 1490.18 1359.67C1491.84 1359.79 1493.29 1358.66 1493.64 1357.08C1495.34 1351.35 1499.83 1346.4 1505.94 1343.73C1511.85 1341.11 1518.45 1341.37 1523.46 1344.32C1528.47 1347.27 1532.11 1353.07 1533.04 1359.82C1534.17 1366.52 1532.45 1373.33 1528.68 1377.72C1527.83 1378.74 1527.65 1380.07 1528.06 1381.29C1528.47 1382.51 1529.44 1383.41 1530.7 1383.61C1535.36 1384.46 1539.02 1389.17 1539.04 1394.14C1539.06 1399.11 1535.32 1403.71 1530.76 1404.57C1529.17 1404.87 1527.79 1406.42 1527.87 1408.14C1527.96 1409.85 1529.24 1411.34 1530.93 1411.67C1536.58 1412.34 1541.77 1417.63 1542.8 1423.7C1543.22 1426.22 1542.36 1432.01 1538.37 1437.51C1535.68 1441.05 1530.92 1445.62 1522.64 1446.32C1514.98 1447.11 1510.19 1445.42 1490.74 1438.27C1487.91 1437.29 1484.65 1436.17 1481.15 1434.89C1479.39 1434.14 1477.31 1435.18 1476.83 1437.21C1476.12 1439.08 1477.11 1441.27 1479.04 1441.77C1482.53 1443.06 1485.79 1444.18 1488.63 1445.16C1508.94 1452.57 1514.2 1454.61 1523.44 1453.51C1524.44 1453.33 1525.46 1453.35 1526.26 1453.2C1535.2 1451.52 1540.88 1446.34 1544.02 1441.85C1549.02 1435.07 1550.56 1427.22 1549.75 1422.39C1548.69 1416.11 1545.12 1410.73 1540.08 1407.57C1543.82 1404.27 1546.06 1399.31 1546.21 1394.09C1545.9 1387.44 1542.22 1381.44 1536.79 1378.35Z" fill="#007E23" fill-opacity="0.2"/>
<path d="M294.854 1065.63C288.987 1063.7 282.194 1064.3 275.843 1067.02C267.914 1070.71 262.105 1077.37 259.935 1085.37C257.766 1093.37 259.522 1102.33 264.596 1109.76C267.98 1114.7 272.41 1118.47 277.458 1120.54C275.919 1122.66 274.807 1125.27 274.04 1128.19C273.295 1131.23 273.217 1134.4 273.812 1137.48C274.407 1140.55 275.658 1143.44 277.472 1145.93C282.324 1152.29 290.951 1155.03 298.792 1153.24C297.773 1159.77 299.616 1166.83 304.186 1171.46C311.002 1178.31 324.12 1177.56 332.356 1173.03L332.542 1172.94C346.436 1165.08 357.234 1151.9 364.073 1134.51C368.53 1135.7 372.985 1136.89 377.283 1137.68C379.164 1137.97 380.846 1136.72 381.299 1134.65C381.426 1133.89 381.366 1133.22 381.123 1132.63C380.716 1131.66 379.673 1130.75 378.508 1130.59C367.24 1128.38 354.605 1124.47 342.2 1119.53C338.605 1109.33 336.952 1092.16 337.847 1086.38C337.973 1085.63 337.914 1084.96 337.67 1084.37C337.182 1083.2 336.221 1082.48 335.055 1082.32C333.174 1082.04 331.493 1083.29 331.222 1085.27C330.305 1091.52 331.658 1105.34 334.331 1115.97C326.462 1112.41 318.779 1108.77 311.751 1104.58C309.533 1099.79 308.499 1096.78 309.307 1092.91C309.432 1092.15 309.372 1091.48 309.047 1090.7C308.64 1089.73 307.599 1088.81 306.618 1088.57C304.735 1088.28 302.973 1089.34 302.519 1091.41C302.04 1093.96 302.012 1096.54 302.539 1098.86C297.105 1095.33 292.307 1091.74 288.144 1088.09C286.754 1086.87 284.586 1086.95 283.252 1088.5C282.102 1089.96 282.179 1092.26 283.648 1093.67C291.282 1100.37 301.085 1106.99 312.261 1113.2C307.857 1114.78 304.759 1117.39 302.336 1121.08C301.268 1122.74 301.712 1124.86 303.285 1125.99C304.857 1127.13 306.864 1126.66 307.933 1125C309.966 1121.96 312.982 1119.15 322.314 1118.31C333.697 1123.96 345.838 1128.79 357.491 1132.45C351.187 1147.96 341.54 1159.67 329.409 1166.48L329.225 1166.57C323.119 1169.88 313.255 1170.5 309.031 1166.18C304.726 1161.66 304.197 1153.52 308.117 1148.67C309.267 1147.21 309.088 1145.19 307.884 1143.89C306.68 1142.59 304.799 1142.3 303.487 1143.37C297.049 1148 287.62 1147.03 282.929 1141.06C280.625 1138.17 279.92 1133.84 280.832 1129.69C281.722 1126.02 283.836 1123.17 286.601 1121.88C288.076 1121.19 288.961 1119.62 288.678 1117.88C288.398 1116.15 287.01 1114.94 285.474 1114.95C279.807 1114.56 274.19 1111.12 270.297 1105.47C266.487 1100.03 265.174 1093.18 266.704 1087.35C268.232 1081.51 272.707 1076.4 278.69 1073.85C284.59 1071.11 291.259 1071.26 296.181 1074.1C297.326 1074.73 298.595 1074.61 299.62 1073.9C300.644 1073.19 301.24 1071.97 301.122 1070.63C300.806 1065.66 304.279 1060.78 308.844 1059.59C313.41 1058.39 318.517 1061.14 320.388 1065.63C321.038 1067.19 322.794 1068.23 324.351 1067.74C325.909 1067.25 326.977 1065.59 326.879 1063.77C326.159 1057.82 329.8 1051.23 335.144 1048.75C337.358 1047.72 342.883 1047.24 348.89 1050.04C352.773 1051.96 358.104 1055.76 360.7 1064.11C363.237 1071.78 362.813 1077.1 360.832 1098.75C360.598 1101.89 360.344 1105.5 359.987 1109.39C359.715 1111.38 361.163 1113.27 363.145 1113.28C365.03 1113.57 366.812 1112.04 366.82 1109.94C367.176 1106.05 367.433 1102.44 367.665 1099.3C369.691 1076.7 370.323 1070.81 367.132 1061.58C366.725 1060.6 366.503 1059.54 366.178 1058.76C362.518 1049.98 356.412 1045.37 351.548 1043.21C344.131 1039.67 336.539 1039.94 332.298 1041.92C326.768 1044.49 322.662 1049.43 320.949 1055.35C317.028 1052.28 311.935 1051.16 307.103 1052.24C301.063 1054.12 296.406 1059.32 294.854 1065.63Z" fill="#007E23" fill-opacity="0.2"/>
<path d="M1361.41 62.4947C1358.14 56.9977 1352.62 52.782 1346.12 50.4828C1337.82 47.8329 1329.31 48.8976 1322.74 53.4773C1316.16 58.0605 1311.98 66.0745 1311.26 75.1983C1310.78 81.2816 1311.83 87.1843 1314.38 92.232C1311.91 92.7781 1309.45 94.0007 1307.08 95.6874C1304.64 97.4806 1302.62 99.8392 1301.18 102.583C1299.74 105.326 1298.91 108.381 1298.76 111.515C1298.53 119.68 1303.39 127.693 1310.44 131.728C1305.65 135.986 1302.7 142.615 1303.31 149.272C1304.28 159.155 1314.7 167.607 1323.74 169.829L1323.93 169.891C1339.33 173.473 1355.64 170.891 1371.55 162.388C1374.2 166.354 1376.85 170.318 1379.62 173.878C1380.87 175.39 1382.92 175.599 1384.54 174.335C1385.1 173.848 1385.47 173.296 1385.65 172.684C1385.94 171.665 1385.71 170.254 1384.92 169.335C1377.73 159.908 1370.54 148.257 1364.16 135.976C1367.72 125.754 1377.04 111.584 1381.27 107.813C1381.84 107.325 1382.2 106.775 1382.38 106.163C1382.73 104.938 1382.44 103.732 1381.65 102.811C1380.4 101.299 1378.36 101.092 1376.93 102.415C1372.38 106.531 1364.9 117.948 1360.38 127.863C1356.6 119.749 1353.01 111.7 1350.25 103.691C1351.52 98.5283 1352.59 95.529 1355.58 93.1468C1356.14 92.6582 1356.51 92.1067 1356.75 91.2911C1357.04 90.2715 1356.81 88.8607 1356.21 88.0026C1354.96 86.4896 1352.97 86.0786 1351.35 87.3418C1349.42 88.9495 1347.81 90.8842 1346.78 93.008C1344.83 86.5931 1343.4 80.5673 1342.48 74.9328C1342.18 73.0522 1340.49 71.6216 1338.52 71.8818C1336.74 72.2044 1335.39 73.9998 1335.63 76.0826C1337.3 86.4168 1340.67 98.1816 1345.33 110.584C1341.01 108.758 1337.05 108.606 1332.94 109.742C1331.11 110.27 1330.14 112.186 1330.63 114.128C1331.13 116.068 1332.94 117.094 1334.78 116.566C1338.19 115.653 1342.21 115.6 1349.82 121.372C1354.98 133.489 1361.22 145.505 1367.82 156.298C1353.48 163.743 1338.94 166.001 1325.53 162.832L1325.34 162.77C1318.67 161.083 1310.79 154.779 1310.25 148.593C1309.76 142.202 1314.37 135.659 1320.34 134.669C1322.11 134.346 1323.22 132.694 1323.11 130.877C1322.99 129.059 1321.74 127.547 1320.08 127.463C1312.35 126.549 1305.78 119.33 1305.9 111.572C1305.93 107.795 1308.06 104.023 1311.31 101.497C1314.25 99.32 1317.61 98.6089 1320.5 99.533C1322.04 100.026 1323.68 99.4379 1324.54 97.9272C1325.39 96.4194 1325.09 94.5418 1323.91 93.4982C1319.85 89.3019 1317.7 82.828 1318.22 75.8662C1318.68 69.1112 1321.9 63.0119 1326.66 59.6324C1331.41 56.2512 1337.96 55.4489 1344.07 57.6262C1350.24 59.598 1355.21 64.3013 1357.2 69.8373C1357.68 71.1048 1358.72 71.8825 1359.94 72.0481C1361.15 72.2136 1362.35 71.7037 1363.09 70.6047C1365.91 66.6073 1371.55 65.2932 1375.75 67.5247C1379.96 69.7578 1382.14 75.3567 1380.8 80.0493C1380.33 81.6819 1381.02 83.6826 1382.51 84.3809C1383.99 85.0773 1385.83 84.5491 1386.87 83.1025C1389.99 78.086 1396.81 75.5899 1402.4 77.3761C1404.72 78.1158 1409.21 81.5533 1412.05 87.805C1413.81 91.9331 1415.51 98.4902 1412.35 106.608C1409.55 114.18 1405.95 117.926 1391.11 133.007C1389 135.227 1386.58 137.796 1383.91 140.507C1382.48 141.831 1382.42 144.26 1383.92 145.631C1385.17 147.146 1387.46 147.21 1388.76 145.621C1391.43 142.909 1393.85 140.343 1395.96 138.12C1411.42 122.349 1415.52 118.316 1418.79 109.112C1419.08 108.091 1419.56 107.133 1419.8 106.318C1422.42 97.1365 1420.63 89.4353 1418.27 84.4478C1414.82 76.6631 1408.88 71.6514 1404.45 70.2339C1398.66 68.3858 1392.5 69.3125 1387.56 72.6308C1386.47 67.6054 1383.29 63.2507 1378.96 60.7498C1373.21 58.0266 1366.48 58.769 1361.41 62.4947Z" fill="#007E23" fill-opacity="0.2"/>
<path d="M876.254 1505.8C877.43 1499.43 876.13 1492.36 872.879 1485.98C868.547 1478.06 861.649 1472.68 853.89 1471.27C846.127 1469.86 837.884 1472.68 831.452 1478.81C827.164 1482.9 824.104 1487.96 822.698 1493.49C820.543 1492.1 817.96 1491.22 815.133 1490.73C812.196 1490.28 809.199 1490.54 806.371 1491.5C803.543 1492.46 800.959 1494.08 798.817 1496.26C793.361 1502.05 791.717 1511.4 794.249 1519.45C787.993 1519.08 781.549 1521.79 777.69 1527.09C771.991 1534.99 774.116 1548.69 779.275 1556.85L779.376 1557.03C788.283 1570.77 801.852 1580.68 818.957 1585.98C818.324 1590.79 817.69 1595.6 817.407 1600.2C817.34 1602.2 818.697 1603.84 820.698 1604.09C821.423 1604.14 822.05 1604 822.574 1603.68C823.447 1603.15 824.193 1601.95 824.213 1600.71C825.072 1588.64 827.373 1574.95 830.677 1561.38C839.89 1556.5 855.861 1552.9 861.393 1553.21C862.119 1553.26 862.743 1553.12 863.267 1552.81C864.316 1552.17 864.888 1551.08 864.909 1549.84C864.976 1547.83 863.619 1546.2 861.718 1546.13C855.738 1545.85 842.889 1548.77 833.172 1552.73C835.667 1544.08 838.262 1535.61 841.437 1527.78C845.703 1524.93 848.426 1523.51 852.155 1523.94C852.88 1523.99 853.505 1523.86 854.204 1523.43C855.077 1522.9 855.825 1521.7 855.946 1520.65C856.012 1518.64 854.829 1516.9 852.827 1516.65C850.376 1516.42 847.951 1516.67 845.826 1517.48C848.556 1511.39 851.414 1505.96 854.397 1501.19C855.393 1499.6 855.083 1497.33 853.48 1496.1C851.975 1495.05 849.824 1495.38 848.654 1497.07C843.181 1505.82 838.019 1516.83 833.384 1529.25C831.418 1524.79 828.63 1521.82 824.896 1519.68C823.215 1518.74 821.268 1519.43 820.373 1521.21C819.478 1522.98 820.135 1525.04 821.815 1525.98C824.899 1527.79 827.862 1530.65 829.672 1540.36C825.591 1552.93 822.362 1566.2 820.182 1578.84C804.901 1573.9 792.838 1565.04 785.114 1553.04L785.013 1552.86C781.239 1546.8 779.576 1536.51 783.185 1531.61C786.97 1526.59 794.569 1525.15 799.561 1528.74C801.065 1529.79 802.94 1529.39 804.036 1527.98C805.131 1526.57 805.199 1524.57 804.043 1523.31C798.992 1517.05 798.881 1507.04 803.988 1501.46C806.455 1498.73 810.453 1497.52 814.458 1498.03C818.011 1498.56 820.922 1500.47 822.433 1503.24C823.239 1504.71 824.817 1505.47 826.418 1504.99C828.017 1504.5 829.011 1502.91 828.829 1501.3C828.585 1495.31 831.212 1489.03 836.099 1484.33C840.81 1479.74 847.107 1477.62 852.764 1478.59C858.422 1479.56 863.714 1483.71 866.762 1489.72C869.985 1495.61 870.562 1502.64 868.431 1508.11C867.96 1509.39 868.215 1510.7 868.994 1511.7C869.772 1512.7 870.977 1513.2 872.225 1512.93C876.875 1512.06 881.839 1515.17 883.458 1519.84C885.077 1524.51 883.044 1530.17 879.026 1532.62C877.628 1533.47 876.835 1535.43 877.465 1537.01C878.099 1538.59 879.779 1539.54 881.478 1539.24C887.002 1537.83 893.592 1540.94 896.512 1546.29C897.721 1548.5 898.769 1554.25 896.791 1560.86C895.406 1565.15 892.4 1571.16 884.835 1574.79C877.89 1578.29 872.84 1578.42 852.251 1578.69C849.275 1578.79 845.848 1578.91 842.146 1578.96C840.244 1578.89 838.626 1580.62 838.83 1582.7C838.763 1584.71 840.395 1586.42 842.372 1586.2C846.073 1586.15 849.5 1586.03 852.477 1585.93C873.965 1585.6 879.569 1585.63 887.909 1581.28C888.783 1580.74 889.757 1580.39 890.456 1579.97C898.318 1575.17 901.996 1568.26 903.504 1562.91C906.026 1554.74 904.945 1546.8 902.628 1542.56C899.606 1537.03 894.515 1533.25 888.757 1532.09C891.219 1527.64 891.723 1522.17 890.181 1517.21C887.754 1511.07 882.361 1506.75 876.254 1505.8Z" fill="#007E23" fill-opacity="0.2"/>
<path d="M1197.25 2103.81C1198.43 2097.44 1197.13 2090.37 1193.88 2084C1189.55 2076.07 1182.65 2070.69 1174.89 2069.28C1167.13 2067.87 1158.88 2070.69 1152.45 2076.82C1148.16 2080.91 1145.1 2085.97 1143.7 2091.5C1141.54 2090.11 1138.96 2089.23 1136.13 2088.74C1133.2 2088.29 1130.2 2088.55 1127.37 2089.51C1124.54 2090.47 1121.96 2092.1 1119.82 2094.27C1114.36 2100.06 1112.72 2109.42 1115.25 2117.46C1108.99 2117.1 1102.55 2119.8 1098.69 2125.1C1092.99 2133 1095.12 2146.7 1100.27 2154.86L1100.38 2155.04C1109.28 2168.78 1122.85 2178.69 1139.96 2183.99C1139.32 2188.8 1138.69 2193.61 1138.41 2198.21C1138.34 2200.22 1139.7 2201.85 1141.7 2202.1C1142.42 2202.15 1143.05 2202.01 1143.57 2201.69C1144.45 2201.16 1145.19 2199.97 1145.21 2198.73C1146.07 2186.65 1148.37 2172.96 1151.68 2159.39C1160.89 2154.51 1176.86 2150.91 1182.39 2151.22C1183.12 2151.27 1183.74 2151.14 1184.27 2150.82C1185.32 2150.18 1185.89 2149.09 1185.91 2147.85C1185.98 2145.84 1184.62 2144.21 1182.72 2144.14C1176.74 2143.86 1163.89 2146.78 1154.17 2150.74C1156.67 2142.09 1159.26 2133.62 1162.44 2125.79C1166.7 2122.94 1169.43 2121.52 1173.15 2121.95C1173.88 2122 1174.51 2121.87 1175.2 2121.44C1176.08 2120.91 1176.82 2119.72 1176.95 2118.66C1177.01 2116.65 1175.83 2114.91 1173.83 2114.66C1171.38 2114.44 1168.95 2114.68 1166.83 2115.49C1169.56 2109.4 1172.41 2103.97 1175.4 2099.2C1176.39 2097.61 1176.08 2095.34 1174.48 2094.11C1172.98 2093.06 1170.82 2093.39 1169.65 2095.09C1164.18 2103.83 1159.02 2114.85 1154.38 2127.26C1152.42 2122.81 1149.63 2119.83 1145.9 2117.69C1144.22 2116.75 1142.27 2117.44 1141.37 2119.22C1140.48 2120.99 1141.14 2123.05 1142.82 2123.99C1145.9 2125.8 1148.86 2128.66 1150.67 2138.37C1146.59 2150.94 1143.36 2164.22 1141.18 2176.85C1125.9 2171.92 1113.84 2163.05 1106.11 2151.05L1106.01 2150.87C1102.24 2144.81 1100.58 2134.52 1104.18 2129.62C1107.97 2124.6 1115.57 2123.17 1120.56 2126.76C1122.07 2127.8 1123.94 2127.4 1125.04 2125.99C1126.13 2124.59 1126.2 2122.58 1125.04 2121.32C1119.99 2115.06 1119.88 2105.05 1124.99 2099.47C1127.46 2096.74 1131.45 2095.53 1135.46 2096.04C1139.01 2096.57 1141.92 2098.48 1143.43 2101.25C1144.24 2102.72 1145.82 2103.48 1147.42 2103C1149.02 2102.51 1150.01 2100.93 1149.83 2099.31C1149.59 2093.32 1152.21 2087.05 1157.1 2082.34C1161.81 2077.75 1168.11 2075.63 1173.76 2076.6C1179.42 2077.58 1184.71 2081.72 1187.76 2087.73C1190.99 2093.63 1191.56 2100.65 1189.43 2106.13C1188.96 2107.4 1189.22 2108.72 1189.99 2109.72C1190.77 2110.71 1191.98 2111.21 1193.23 2110.94C1197.88 2110.07 1202.84 2113.19 1204.46 2117.85C1206.08 2122.52 1204.04 2128.18 1200.03 2130.63C1198.63 2131.48 1197.84 2133.44 1198.47 2135.02C1199.1 2136.61 1200.78 2137.55 1202.48 2137.25C1208 2135.84 1214.59 2138.95 1217.51 2144.3C1218.72 2146.51 1219.77 2152.26 1217.79 2158.87C1216.41 2163.16 1213.4 2169.17 1205.83 2172.81C1198.89 2176.3 1193.84 2176.44 1173.25 2176.71C1170.27 2176.8 1166.85 2176.93 1163.15 2176.97C1161.24 2176.9 1159.63 2178.63 1159.83 2180.71C1159.76 2182.72 1161.39 2184.43 1163.37 2184.21C1167.07 2184.16 1170.5 2184.04 1173.48 2183.94C1194.97 2183.62 1200.57 2183.64 1208.91 2179.29C1209.78 2178.75 1210.76 2178.41 1211.46 2177.98C1219.32 2173.18 1223 2166.27 1224.5 2160.93C1227.03 2152.75 1225.95 2144.81 1223.63 2140.57C1220.61 2135.04 1215.51 2131.26 1209.76 2130.1C1212.22 2125.65 1212.72 2120.18 1211.18 2115.22C1208.75 2109.09 1203.36 2104.76 1197.25 2103.81Z" fill="#007E23" fill-opacity="0.2"/>
<path d="M1554.91 2002.2C1549.73 2005.69 1545.77 2011.55 1543.63 2018.43C1541.17 2027.21 1542.22 2036.19 1546.59 2043.11C1550.96 2050.03 1558.57 2054.41 1567.21 2055.12C1572.97 2055.59 1578.55 2054.46 1583.32 2051.73C1583.85 2054.34 1585.02 2056.93 1586.63 2059.43C1588.34 2061.99 1590.58 2064.11 1593.18 2065.62C1595.79 2067.13 1598.69 2067.99 1601.65 2068.13C1609.38 2068.33 1616.94 2063.15 1620.72 2055.68C1624.78 2060.72 1631.07 2063.8 1637.36 2063.11C1646.71 2062.04 1654.65 2050.98 1656.71 2041.42L1656.76 2041.21C1660.07 2024.93 1657.54 2007.7 1649.4 1990.95C1653.14 1988.12 1656.88 1985.3 1660.23 1982.35C1661.66 1981.02 1661.84 1978.86 1660.64 1977.15C1660.17 1976.56 1659.65 1976.17 1659.07 1975.99C1658.1 1975.69 1656.77 1975.94 1655.9 1976.78C1647.02 1984.43 1636.03 1992.09 1624.44 1998.89C1614.75 1995.19 1601.29 1985.43 1597.7 1980.97C1597.23 1980.38 1596.71 1979.99 1596.13 1979.81C1594.97 1979.45 1593.83 1979.76 1592.96 1980.6C1591.54 1981.93 1591.35 1984.09 1592.61 1985.59C1596.53 1990.37 1607.38 1998.21 1616.79 2002.93C1609.13 2006.98 1601.53 2010.81 1593.96 2013.77C1589.07 2012.46 1586.23 2011.35 1583.96 2008.19C1583.49 2007.6 1582.97 2007.22 1582.19 2006.98C1581.23 2006.67 1579.89 2006.92 1579.08 2007.55C1577.66 2008.89 1577.28 2010.99 1578.48 2012.7C1580.02 2014.73 1581.86 2016.42 1583.87 2017.49C1577.81 2019.59 1572.12 2021.14 1566.79 2022.13C1565.01 2022.46 1563.67 2024.26 1563.92 2026.34C1564.24 2028.22 1565.94 2029.64 1567.91 2029.37C1577.69 2027.54 1588.8 2023.92 1600.52 2018.93C1598.81 2023.5 1598.69 2027.68 1599.79 2032.02C1600.3 2033.96 1602.11 2034.97 1603.95 2034.44C1605.78 2033.9 1606.74 2031.98 1606.24 2030.05C1605.35 2026.44 1605.28 2022.2 1610.7 2014.13C1622.14 2008.61 1633.48 2001.95 1643.66 1994.92C1650.78 2010.03 1653 2025.38 1650.07 2039.56L1650.02 2039.76C1648.46 2046.82 1642.53 2055.18 1636.68 2055.79C1630.64 2056.34 1624.42 2051.5 1623.45 2045.2C1623.13 2043.33 1621.56 2042.17 1619.84 2042.3C1618.12 2042.43 1616.7 2043.76 1616.63 2045.51C1615.81 2053.69 1609.01 2060.66 1601.67 2060.59C1598.09 2060.58 1594.51 2058.34 1592.1 2054.92C1590.03 2051.83 1589.33 2048.29 1590.19 2045.23C1590.65 2043.59 1590.09 2041.86 1588.65 2040.97C1587.22 2040.07 1585.44 2040.41 1584.46 2041.65C1580.51 2045.97 1574.4 2048.27 1567.81 2047.76C1561.41 2047.31 1555.62 2043.94 1552.39 2038.94C1549.17 2033.93 1548.37 2027.02 1550.4 2020.55C1552.23 2014.02 1556.66 2008.75 1561.89 2006.61C1563.08 2006.1 1563.81 2004.99 1563.96 2003.71C1564.11 2002.42 1563.62 2001.16 1562.58 2000.39C1558.78 1997.42 1557.51 1991.47 1559.59 1987.02C1561.69 1982.57 1566.97 1980.23 1571.42 1981.62C1572.97 1982.11 1574.86 1981.37 1575.51 1979.8C1576.16 1978.22 1575.65 1976.29 1574.28 1975.19C1569.51 1971.92 1567.11 1964.73 1568.77 1958.81C1569.46 1956.36 1572.69 1951.6 1578.59 1948.57C1582.49 1946.68 1588.68 1944.85 1596.39 1948.15C1603.57 1951.06 1607.13 1954.84 1621.49 1970.44C1623.6 1972.66 1626.04 1975.2 1628.62 1978C1629.89 1979.51 1632.18 1979.56 1633.47 1977.97C1634.9 1976.64 1634.95 1974.21 1633.44 1972.85C1630.86 1970.04 1628.41 1967.5 1626.3 1965.29C1611.29 1949.04 1607.45 1944.73 1598.72 1941.33C1597.75 1941.03 1596.84 1940.52 1596.07 1940.28C1587.37 1937.55 1580.09 1939.49 1575.38 1942.01C1568.03 1945.7 1563.32 1952 1562 1956.69C1560.28 1962.81 1561.2 1969.32 1564.36 1974.53C1559.61 1975.7 1555.51 1979.08 1553.17 1983.67C1550.62 1989.76 1551.36 1996.87 1554.91 2002.2Z" fill="#007E23" fill-opacity="0.2"/>
<path d="M801.583 865.005C807.104 867.855 813.904 868.357 820.574 866.689C828.942 864.32 835.644 858.672 838.942 851.119C842.241 843.562 841.798 834.42 837.855 826.267C835.225 820.832 831.39 816.4 826.7 813.535C828.526 811.694 830.002 809.287 831.182 806.529C832.356 803.648 832.891 800.521 832.747 797.387C832.603 794.253 831.782 791.194 830.349 788.446C826.471 781.38 818.34 777.28 810.333 777.782C812.283 771.492 811.48 764.216 807.632 758.905C801.882 751.044 788.81 749.668 780.016 752.82L779.821 752.876C764.954 758.409 752.381 769.692 743.113 785.778C738.879 783.888 734.647 781.996 730.515 780.517C728.697 779.929 726.855 780.891 726.107 782.869C725.873 783.595 725.835 784.271 725.992 784.888C726.252 785.917 727.152 786.987 728.281 787.329C739.097 791.33 751.022 797.223 762.568 804.106C764.649 814.772 763.805 832.003 762.087 837.568C761.854 838.296 761.816 838.968 761.972 839.585C762.286 840.821 763.132 841.686 764.261 842.029C766.079 842.618 767.92 841.654 768.475 839.732C770.284 833.702 770.939 819.834 769.832 808.891C777.096 813.678 784.163 818.517 790.504 823.785C792.005 828.876 792.593 832.021 791.236 835.715C791.003 836.442 790.966 837.116 791.174 837.939C791.435 838.968 792.333 840.04 793.267 840.437C795.086 841.025 796.98 840.267 797.729 838.289C798.569 835.845 798.969 833.306 798.783 830.929C803.644 835.291 807.868 839.613 811.456 843.892C812.653 845.32 814.807 845.591 816.349 844.274C817.698 843.01 817.953 840.729 816.705 839.096C810.126 831.248 801.393 823.128 791.244 815.186C795.824 814.332 799.262 812.256 802.19 808.999C803.486 807.528 803.353 805.36 801.961 803.987C800.571 802.615 798.52 802.753 797.224 804.224C794.776 806.904 791.39 809.187 782.045 808.521C771.611 801.102 760.309 794.372 749.32 788.876C757.79 774.558 769.013 764.541 781.985 759.765L782.179 759.71C788.691 757.425 798.531 758.392 802.081 763.344C805.683 768.504 805.033 776.632 800.458 780.797C799.11 782.061 798.997 784.079 799.998 785.562C801 787.044 802.817 787.632 804.269 786.779C811.299 783.245 820.479 785.721 824.253 792.376C826.114 795.602 826.186 799.995 824.685 803.951C823.275 807.438 820.775 809.915 817.857 810.741C816.3 811.182 815.198 812.596 815.227 814.355C815.255 816.112 816.45 817.538 817.97 817.769C823.514 819.072 828.569 823.377 831.603 829.581C834.583 835.577 834.893 842.553 832.538 848.074C830.186 853.597 825.026 857.925 818.745 859.481C812.518 861.244 805.95 860.015 801.494 856.422C800.453 855.612 799.181 855.532 798.066 856.068C796.951 856.604 796.187 857.705 796.111 859.049C795.704 864.02 791.569 868.278 786.885 868.724C782.2 869.168 777.549 865.628 776.348 860.893C775.93 859.245 774.346 857.929 772.736 858.163C771.125 858.4 769.831 859.871 769.665 861.682C769.518 867.683 764.969 873.604 759.328 875.201C756.992 875.862 751.462 875.443 745.929 871.713C742.368 869.189 737.65 864.566 736.287 855.905C734.887 847.912 736.073 842.724 741.156 821.643C741.839 818.58 742.612 815.051 743.526 811.26C744.082 809.337 742.924 807.239 740.966 806.908C739.146 806.319 737.163 807.544 736.853 809.618C735.939 813.408 735.164 816.937 734.482 820C729.218 842.014 727.745 847.727 729.566 857.365C729.828 858.396 729.894 859.479 730.103 860.303C732.453 869.568 737.821 875.111 742.317 878.033C749.137 882.723 756.679 883.675 761.156 882.408C766.993 880.756 771.763 876.537 774.31 870.96C777.742 874.625 782.614 876.555 787.546 876.264C793.786 875.377 799.139 870.993 801.583 865.005Z" fill="#007E23" fill-opacity="0.2"/>
<path d="M153.804 2045.83C158.967 2042.32 162.89 2036.43 164.988 2029.53C167.396 2020.74 166.286 2011.76 161.873 2004.87C157.457 1997.98 149.822 1993.65 141.178 1993C135.415 1992.57 129.842 1993.75 125.095 1996.51C124.549 1993.9 123.362 1991.32 121.737 1988.83C120.011 1986.28 117.754 1984.18 115.141 1982.69C112.527 1981.2 109.625 1980.36 106.658 1980.23C98.9278 1980.08 91.4022 1985.32 87.6687 1992.82C83.5809 1987.8 77.2717 1984.77 70.9796 1985.5C61.6378 1986.63 53.7635 1997.74 51.77 2007.33L51.7137 2007.53C48.5087 2023.84 51.1477 2041.04 59.3861 2057.74C55.6653 2060.59 51.9451 2063.44 48.6097 2066.41C47.1932 2067.75 47.0206 2069.92 48.2358 2071.62C48.7034 2072.2 49.2306 2072.59 49.8117 2072.77C50.7801 2073.06 52.112 2072.8 52.9729 2071.96C61.8074 2064.24 72.7474 2056.51 84.2945 2049.63C94.0111 2053.26 107.534 2062.93 111.153 2067.36C111.622 2067.95 112.147 2068.33 112.728 2068.51C113.891 2068.87 115.029 2068.55 115.891 2067.71C117.308 2066.37 117.479 2064.2 116.21 2062.71C112.26 2057.95 101.364 2050.19 91.9268 2045.53C99.5603 2041.44 107.135 2037.55 114.682 2034.54C119.583 2035.81 122.434 2036.91 124.725 2040.05C125.194 2040.63 125.72 2041.01 126.495 2041.25C127.463 2041.55 128.796 2041.29 129.601 2040.65C131.017 2039.31 131.383 2037.21 130.168 2035.51C128.623 2033.48 126.772 2031.81 124.75 2030.75C130.798 2028.61 136.483 2027.02 141.805 2025.99C143.581 2025.64 144.915 2023.84 144.645 2021.76C144.318 2019.89 142.603 2018.48 140.634 2018.76C130.874 2020.65 119.78 2024.35 108.098 2029.42C109.775 2024.84 109.871 2020.66 108.747 2016.33C108.225 2014.39 106.4 2013.39 104.568 2013.94C102.738 2014.49 101.789 2016.41 102.311 2018.35C103.215 2021.95 103.314 2026.19 97.9427 2034.3C86.537 2039.9 75.2402 2046.64 65.1054 2053.73C57.8865 2038.67 55.5751 2023.34 58.4134 2009.14L58.4694 2008.93C59.9858 2001.86 65.857 1993.46 71.7049 1992.82C77.7478 1992.23 83.9959 1997.02 85.0046 2003.31C85.3313 2005.18 86.9078 2006.33 88.6264 2006.19C90.3453 2006.05 91.7615 2004.71 91.8209 2002.95C92.5932 1994.77 99.3463 1987.75 106.689 1987.78C110.264 1987.76 113.861 1989.97 116.29 1993.37C118.385 1996.45 119.099 1999.99 118.259 2003.06C117.811 2004.69 118.387 2006.42 119.827 2007.3C121.264 2008.19 123.038 2007.84 124.011 2006.59C127.934 2002.25 134.035 1999.9 140.63 2000.37C147.028 2000.78 152.84 2004.1 156.095 2009.09C159.352 2014.07 160.19 2020.97 158.203 2027.46C156.411 2034 152.02 2039.31 146.804 2041.48C145.61 2042 144.887 2043.11 144.745 2044.39C144.603 2045.68 145.1 2046.94 146.149 2047.7C149.966 2050.64 151.277 2056.58 149.216 2061.05C147.153 2065.52 141.88 2067.89 137.423 2066.53C135.872 2066.06 133.987 2066.81 133.344 2068.38C132.703 2069.96 133.225 2071.89 134.607 2072.98C139.392 2076.22 141.836 2083.39 140.213 2089.32C139.54 2091.77 136.341 2096.56 130.459 2099.63C126.573 2101.55 120.388 2103.42 112.667 2100.18C105.468 2097.31 101.878 2093.56 87.4281 2078.06C85.301 2075.86 82.841 2073.33 80.2432 2070.55C78.9727 2069.05 76.6739 2069.01 75.3937 2070.61C73.9753 2071.95 73.942 2074.38 75.4618 2075.73C78.06 2078.52 80.5181 2081.04 82.6467 2083.24C97.7583 2099.39 101.625 2103.67 110.374 2107.01C111.344 2107.31 112.257 2107.81 113.031 2108.04C121.752 2110.71 129.019 2108.72 133.711 2106.17C141.037 2102.43 145.708 2096.1 146.997 2091.39C148.676 2085.26 147.725 2078.77 144.525 2073.58C149.268 2072.37 153.351 2068.96 155.666 2064.35C158.174 2058.25 157.391 2051.14 153.804 2045.83Z" fill="#007E23" fill-opacity="0.2"/>
</svg>
